<svg xmlns="http://www.w3.org/2000/svg" xmlns:xlink="http://www.w3.org/1999/xlink" width="512" zoomAndPan="magnify" viewBox="0 0 384 383.999986" height="512" preserveAspectRatio="xMidYMid meet" version="1.0"><path fill="#294466" d="M 172.371094 168.3125 C 171.730469 169.011719 169.980469 171.4375 168.484375 173.707031 C 166.988281 175.972656 163.890625 179.808594 161.597656 182.230469 C 154.789062 189.429688 155.421875 188.558594 141.355469 210.132812 C 129.152344 228.855469 122.265625 234.191406 115.824219 229.929688 C 114.328125 228.941406 113.636719 228.75 112.4375 229 C 104.863281 230.578125 101.117188 229.566406 98.304688 225.183594 C 97.488281 223.914062 96.109375 222.332031 95.238281 221.667969 C 93.492188 220.332031 90.886719 217.671875 90.886719 217.210938 C 90.878906 216.523438 87.03125 211.226562 85.753906 210.152344 C 82.597656 207.496094 81.050781 208.828125 74.070312 220.222656 C 68.792969 228.832031 60.621094 238.550781 56.347656 241.300781 C 54.113281 242.738281 52.960938 242.890625 50.3125 242.097656 C 45.921875 240.78125 38.191406 248.757812 33.808594 259.121094 C 31.46875 264.648438 28.011719 269.613281 22.195312 275.796875 C 18.601562 279.613281 13.929688 285.585938 13.929688 286.359375 C 13.929688 287.992188 20.285156 283.328125 24.296875 278.75 C 25.816406 277.015625 28.9375 273.511719 31.234375 270.972656 C 33.527344 268.429688 38.085938 263.238281 41.363281 259.4375 C 48.601562 251.046875 47.980469 251.535156 51.789062 251.261719 C 55.246094 251.015625 57.042969 250.121094 57.734375 248.304688 C 57.980469 247.65625 60.003906 245.230469 62.234375 242.914062 C 64.679688 240.371094 67.347656 236.964844 68.964844 234.324219 C 77.734375 220 80.867188 218.800781 88.796875 226.734375 C 94.976562 232.910156 95.65625 236.113281 92.289062 243.199219 C 89.359375 249.375 89.117188 250.425781 90.386719 251.570312 C 92.640625 253.613281 90.875 257.71875 86.273438 261.109375 C 79.417969 266.171875 78.636719 267.351562 77.984375 273.671875 C 77.167969 281.59375 72.507812 286.25 53.460938 298.167969 C 51.078125 299.660156 50.523438 301.140625 52.347656 301.140625 C 54.535156 301.140625 60.496094 298.246094 66.460938 294.292969 C 68.613281 292.863281 70.570312 291.613281 70.804688 291.511719 C 71.039062 291.414062 72.078125 290.6875 73.109375 289.898438 C 74.144531 289.113281 77.097656 287.058594 79.675781 285.339844 C 85.488281 281.460938 87.554688 279.101562 98.542969 263.816406 C 115.34375 240.4375 115.414062 240.363281 119.183594 241.941406 C 121.109375 242.746094 123.105469 242.402344 127.054688 240.582031 C 128.324219 240 129.863281 239.363281 130.480469 239.167969 C 134.816406 237.804688 139.234375 233.042969 145.414062 223.058594 C 147.277344 220.050781 150.738281 216.386719 155.089844 212.820312 C 160.761719 208.167969 162.257812 206.640625 163.359375 204.371094 C 170.042969 190.601562 175.402344 189.410156 184.242188 199.730469 C 186.101562 201.902344 188.71875 204.636719 190.058594 205.804688 C 191.574219 207.132812 192.996094 208.949219 193.835938 210.644531 C 194.578125 212.136719 195.972656 214.261719 196.9375 215.367188 C 199.730469 218.574219 199.84375 221.722656 197.363281 227.070312 C 196.628906 228.652344 195.652344 230.878906 195.191406 232.019531 C 194.613281 233.449219 192.769531 235.6875 189.273438 239.210938 C 183.84375 244.683594 182.082031 247.21875 182.964844 248.285156 C 183.613281 249.066406 190.84375 249.863281 200.960938 250.269531 C 210.964844 250.675781 211.605469 251.296875 208.5 257.59375 C 204.164062 266.378906 199.367188 272.199219 191.035156 278.792969 C 185.433594 283.226562 185.484375 287.226562 191.105469 284.28125 C 194.378906 282.570312 198.644531 280.980469 200.785156 280.679688 C 205.910156 279.957031 209.832031 278.242188 213.492188 275.117188 C 214.851562 273.957031 216.730469 272.777344 217.671875 272.492188 C 218.613281 272.214844 220.164062 271.183594 221.121094 270.203125 C 222.839844 268.445312 222.898438 268.421875 226.382812 268.421875 C 234.28125 268.421875 235.160156 271.613281 229.75 280.632812 C 226.144531 286.640625 226.390625 287.203125 231.5625 284.78125 C 233.457031 283.894531 235.601562 283.164062 236.328125 283.15625 C 238.289062 283.144531 240.996094 281.746094 244.097656 279.148438 C 252.847656 271.816406 260.84375 271.214844 274.152344 276.878906 C 275.726562 277.550781 277.242188 278.101562 277.523438 278.101562 C 279.3125 278.101562 295.785156 287.523438 306.023438 294.40625 C 312.675781 298.878906 314.828125 299.769531 311.347656 296.609375 C 308.832031 294.328125 297.972656 284.574219 296.535156 283.304688 C 295.902344 282.746094 287.886719 275.554688 278.726562 267.324219 C 269.566406 259.09375 260.714844 251.335938 259.0625 250.085938 C 253.222656 245.667969 252.554688 243.910156 255.519531 240.773438 C 259.3125 236.765625 263.472656 231.511719 265.527344 228.136719 C 267.792969 224.410156 268.398438 223.695312 273.421875 218.8125 C 278.175781 214.1875 278.792969 214.210938 282.820312 219.132812 C 284.261719 220.894531 286.765625 223.378906 288.382812 224.648438 C 294.707031 229.617188 295.484375 233.519531 291.246094 239 C 290.53125 239.921875 289.949219 240.941406 289.949219 241.269531 C 289.949219 242.367188 286.660156 246.644531 284.148438 248.8125 C 279.820312 252.546875 281.871094 253.082031 293.832031 251.324219 C 297.523438 250.785156 305.34375 251.375 306.226562 252.265625 C 308.4375 254.472656 304.828125 262.722656 300.445312 265.492188 C 298.636719 266.632812 297.214844 268.992188 297.652344 270.125 C 298.355469 271.964844 309.824219 268.605469 320.085938 263.550781 C 323.847656 261.699219 324.914062 262.867188 324.0625 267.910156 C 322.835938 275.15625 322.792969 274.59375 324.558594 274.242188 C 326.964844 273.761719 329.585938 272.222656 332.199219 269.753906 C 336.867188 265.355469 338.289062 265.546875 349.375 272.097656 C 350.757812 272.914062 353.660156 274.527344 355.824219 275.683594 C 360.53125 278.191406 362.179688 279.296875 369.554688 284.882812 C 377.132812 290.621094 377.738281 290.59375 373.527344 284.714844 C 364.707031 272.398438 342.683594 250.695312 331.652344 243.449219 C 327.183594 240.515625 326.339844 240.371094 320.308594 241.476562 C 317.898438 241.917969 316.664062 241.101562 311.121094 235.40625 C 305.234375 229.351562 291.050781 210.664062 287.777344 204.652344 C 287.011719 203.242188 280.660156 197 279.992188 197 C 279.65625 197 279.148438 197.4375 278.859375 197.972656 C 278.574219 198.511719 277.582031 199.589844 276.65625 200.371094 C 272.390625 203.972656 270.589844 206.359375 267.523438 212.46875 C 263.917969 219.652344 262.402344 221.652344 257.84375 225.234375 C 255.09375 227.394531 254.066406 228.605469 251.96875 232.171875 C 247.511719 239.742188 246.539062 240.277344 241.667969 237.84375 C 239.574219 236.796875 237.597656 236.199219 235.574219 236 C 228.890625 235.332031 226.816406 233.886719 223.855469 227.839844 C 222.761719 225.601562 220.734375 222.253906 219.355469 220.40625 C 217.972656 218.554688 216.148438 216.019531 215.296875 214.769531 C 213.855469 212.644531 208.097656 205.34375 207.460938 204.832031 C 207.304688 204.707031 204.417969 201.386719 201.046875 197.460938 C 195.53125 191.027344 193.3125 188.191406 184.464844 176.261719 C 178.070312 167.644531 174.902344 165.5625 172.371094 168.3125 " fill-opacity="1" fill-rule="evenodd"/><path fill="#f38434" d="M 177.742188 65.972656 C 176.730469 66.054688 174.863281 66.332031 173.597656 66.589844 C 172.328125 66.847656 169.839844 67.253906 168.066406 67.492188 C 162.816406 68.195312 159 68.910156 156.546875 69.644531 C 155.28125 70.023438 153.414062 70.558594 152.398438 70.835938 C 149.277344 71.683594 140.957031 74.429688 139.496094 75.09375 C 138.738281 75.441406 136.710938 76.289062 135 76.972656 C 131.578125 78.34375 117.535156 85.351562 117.15625 85.878906 C 117.023438 86.0625 115.257812 87.230469 113.230469 88.480469 C 111.203125 89.730469 108.613281 91.429688 107.472656 92.257812 C 102.707031 95.714844 101.867188 96.347656 101.117188 97.03125 C 100.683594 97.425781 98.152344 99.628906 95.492188 101.929688 C 87.519531 108.824219 77.695312 119.710938 72.910156 126.949219 C 72.277344 127.90625 70.9375 129.910156 69.9375 131.394531 C 68.933594 132.882812 67.730469 134.796875 67.261719 135.644531 C 66.792969 136.496094 66.199219 137.429688 65.941406 137.71875 C 65.304688 138.445312 61 146.855469 58.246094 152.761719 C 56.265625 157.003906 51.746094 170.140625 50.792969 174.417969 C 50.480469 175.8125 49.941406 177.921875 49.59375 179.101562 C 45.238281 193.828125 44.777344 233.402344 48.964844 233.402344 C 49.652344 233.402344 50.859375 233.53125 51.644531 233.6875 C 54.058594 234.171875 64.882812 221.21875 69.222656 212.65625 C 69.800781 211.519531 70.421875 210.488281 70.605469 210.363281 C 70.789062 210.234375 71.261719 209.507812 71.65625 208.75 C 77.351562 197.730469 88.429688 198.453125 96.171875 210.34375 C 97.804688 212.855469 99.761719 215.25 100.699219 215.894531 C 101.609375 216.519531 102.921875 217.925781 103.617188 219.023438 C 105.214844 221.554688 105.933594 221.925781 108.191406 221.402344 C 111.515625 220.632812 116.085938 220.871094 118.140625 221.917969 C 121.007812 223.378906 123.46875 221.882812 127.28125 216.351562 C 127.894531 215.464844 128.53125 214.636719 128.695312 214.507812 C 129.085938 214.214844 136.089844 203.78125 138.753906 199.53125 C 139.863281 197.757812 141.621094 194.960938 142.652344 193.3125 C 143.683594 191.664062 144.949219 189.761719 145.46875 189.085938 C 145.984375 188.40625 147.03125 186.976562 147.792969 185.90625 C 148.550781 184.832031 151.421875 181.554688 154.164062 178.613281 C 156.910156 175.671875 160.695312 170.972656 162.578125 168.167969 C 172.253906 153.746094 179.832031 155.453125 193.730469 175.191406 C 198.835938 182.449219 203.65625 188.484375 211.382812 197.300781 C 216.300781 202.914062 216.648438 203.34375 220.359375 208.371094 C 229.75 221.09375 230.289062 221.898438 231.457031 225.03125 C 232.394531 227.542969 233 227.871094 236.648438 227.871094 C 239.085938 227.871094 240.421875 228.117188 241.683594 228.792969 C 244.082031 230.078125 244.015625 230.117188 246.328125 226.144531 C 247.46875 224.179688 249.09375 222.019531 249.9375 221.34375 C 250.78125 220.667969 252.5625 219.261719 253.894531 218.222656 C 256.746094 215.988281 257.597656 214.71875 261.15625 207.371094 C 263.503906 202.519531 264.308594 201.359375 267.691406 197.90625 C 269.808594 195.742188 271.929688 193.335938 272.398438 192.5625 C 275.214844 187.9375 280.449219 187.179688 285.109375 190.71875 C 287.972656 192.894531 293.988281 199.136719 294.824219 200.800781 C 295.621094 202.386719 298.738281 207.210938 299.21875 207.597656 C 299.375 207.722656 300.101562 208.675781 300.832031 209.714844 C 302.066406 211.46875 306.488281 217.367188 307.371094 218.4375 C 307.585938 218.699219 308.152344 219.527344 308.628906 220.28125 C 311.234375 224.414062 320.242188 233.566406 321.25 233.109375 C 323.949219 231.894531 328.394531 232.589844 332.921875 234.9375 C 336.074219 236.570312 335.792969 236.753906 336.714844 232.46875 C 338.160156 225.777344 338.523438 195.484375 337.183594 193.320312 C 336.996094 193.011719 336.570312 190.96875 336.238281 188.773438 C 334.980469 180.429688 334.628906 178.472656 334.253906 177.722656 C 334.039062 177.300781 333.503906 175.398438 333.0625 173.5 C 332.273438 170.097656 329.496094 161.246094 328.652344 159.445312 C 328.414062 158.9375 327.824219 157.484375 327.335938 156.21875 C 326.339844 153.621094 321.058594 142.675781 319.105469 139.167969 C 317.125 135.601562 315.132812 132.28125 314.828125 132.027344 C 314.679688 131.898438 313.925781 130.863281 313.160156 129.722656 C 309.082031 123.664062 306.789062 120.675781 301.871094 115.027344 C 298.125 110.722656 288.078125 100.898438 285.570312 99.082031 C 284.558594 98.351562 283.105469 97.195312 282.34375 96.511719 C 281.03125 95.335938 278.421875 93.457031 273.820312 90.367188 C 272.679688 89.601562 271.472656 88.707031 271.136719 88.382812 C 270.804688 88.054688 270.304688 87.789062 270.027344 87.789062 C 269.753906 87.789062 268.863281 87.28125 268.046875 86.65625 C 266.039062 85.128906 254.289062 79.113281 249.167969 76.996094 C 246.886719 76.054688 244.605469 75.097656 244.097656 74.871094 C 242.667969 74.234375 233.765625 71.382812 231.195312 70.738281 C 229.929688 70.425781 227.542969 69.796875 225.898438 69.34375 C 224.25 68.894531 221.449219 68.300781 219.675781 68.027344 C 217.902344 67.753906 215.101562 67.296875 213.457031 67.007812 C 207.296875 65.933594 203.699219 65.730469 191.796875 65.777344 C 185.082031 65.804688 178.757812 65.890625 177.742188 65.972656 " fill-opacity="1" fill-rule="evenodd"/><path fill="#f7bd69" d="M 175.902344 65.230469 C 160.667969 67.074219 150.738281 69.476562 138.605469 74.246094 C 133.527344 76.246094 119.546875 83.058594 116.6875 84.929688 C 115.546875 85.675781 113.472656 87.019531 112.078125 87.917969 C 84.332031 105.804688 62.214844 134.515625 52.1875 165.664062 C 49.671875 173.476562 49.796875 173 47.863281 182.484375 C 44.652344 198.265625 43.949219 219.800781 46.273438 231.367188 C 46.878906 234.386719 47.101562 234.582031 50.441406 234.953125 C 53.015625 235.246094 53.136719 235.207031 54.972656 233.546875 C 58.726562 230.160156 70.609375 214.199219 70.609375 212.550781 C 70.609375 211.851562 74.152344 206.953125 75.746094 205.449219 C 82.070312 199.476562 88.507812 201.042969 94.585938 210.027344 C 96.242188 212.476562 98.730469 215.574219 100.113281 216.914062 C 101.5 218.253906 103.230469 220.148438 103.960938 221.128906 C 105.277344 222.886719 105.320312 222.90625 107.648438 222.605469 C 114.628906 221.710938 115.035156 221.726562 117.691406 222.984375 C 120.960938 224.53125 120.9375 224.535156 123.441406 222.226562 C 127.257812 218.714844 132.917969 210.875 141.109375 197.757812 C 146.054688 189.84375 150.261719 184.25 155.332031 178.863281 C 158.15625 175.863281 161.789062 171.394531 163.410156 168.929688 C 172.292969 155.417969 178.21875 156.386719 190.96875 173.445312 C 193.542969 176.898438 196.808594 181.253906 198.21875 183.128906 C 199.628906 185.003906 203.378906 189.566406 206.554688 193.265625 C 216.027344 204.316406 218.710938 207.636719 222.257812 212.691406 C 224.113281 215.339844 226.398438 218.484375 227.335938 219.679688 C 228.269531 220.875 229.40625 222.847656 229.859375 224.058594 C 231.484375 228.410156 232.742188 229.246094 237.664062 229.253906 C 239.074219 229.253906 240.699219 229.617188 241.792969 230.175781 C 244.21875 231.414062 244.972656 231.058594 246.496094 227.972656 C 247.808594 225.304688 250.957031 221.832031 255.261719 218.296875 C 257.609375 216.371094 259.808594 213.144531 261.609375 208.980469 C 263.511719 204.582031 265.832031 201.234375 269.523438 197.554688 C 271.632812 195.453125 273.359375 193.441406 273.359375 193.085938 C 273.359375 192.730469 274.085938 191.882812 274.976562 191.207031 C 280.457031 187.023438 287.257812 191.410156 296.101562 204.832031 C 303.480469 216.027344 318.464844 234.382812 320.164062 234.304688 C 320.398438 234.292969 321.523438 234.101562 322.664062 233.878906 C 325.480469 233.332031 328.652344 234 332.480469 235.945312 C 334.21875 236.828125 335.910156 237.550781 336.242188 237.550781 C 338.851562 237.550781 340.21875 205.289062 338.148438 192.621094 C 337.773438 190.339844 337.242188 187.125 336.96875 185.480469 C 334.503906 170.691406 326.917969 149.980469 319.519531 137.855469 C 318.460938 136.117188 317.597656 134.628906 317.597656 134.546875 C 317.597656 134.226562 311.816406 125.664062 309.832031 123.039062 C 302.941406 113.949219 293.152344 103.785156 284.894531 97.144531 C 280.488281 93.605469 269.570312 85.945312 268.929688 85.945312 C 268.78125 85.945312 268.113281 85.554688 267.441406 85.078125 C 260.707031 80.300781 242.09375 72.3125 231.3125 69.570312 C 229.855469 69.199219 227.367188 68.566406 225.78125 68.167969 C 211.722656 64.601562 191.09375 63.386719 175.902344 65.230469 M 207.234375 66.109375 C 209.007812 66.316406 211.808594 66.722656 213.457031 67.007812 C 215.101562 67.296875 217.902344 67.753906 219.675781 68.027344 C 221.449219 68.300781 224.25 68.894531 225.898438 69.34375 C 227.542969 69.796875 229.929688 70.425781 231.195312 70.738281 C 233.765625 71.382812 242.667969 74.234375 244.097656 74.871094 C 244.605469 75.097656 246.886719 76.054688 249.167969 76.996094 C 254.289062 79.113281 266.039062 85.128906 268.046875 86.65625 C 268.863281 87.28125 269.753906 87.789062 270.027344 87.789062 C 270.304688 87.789062 270.804688 88.054688 271.136719 88.382812 C 271.472656 88.707031 272.679688 89.601562 273.820312 90.367188 C 278.421875 93.457031 281.03125 95.335938 282.34375 96.511719 C 283.105469 97.195312 284.558594 98.351562 285.570312 99.082031 C 288.078125 100.898438 298.125 110.722656 301.871094 115.027344 C 306.789062 120.675781 309.082031 123.664062 313.160156 129.722656 C 313.925781 130.863281 314.679688 131.898438 314.828125 132.027344 C 315.132812 132.28125 317.125 135.601562 319.105469 139.167969 C 321.058594 142.675781 326.339844 153.621094 327.335938 156.21875 C 327.824219 157.484375 328.414062 158.9375 328.652344 159.445312 C 329.496094 161.246094 332.273438 170.097656 333.0625 173.5 C 333.503906 175.398438 334.039062 177.300781 334.253906 177.722656 C 334.628906 178.472656 334.980469 180.429688 336.238281 188.773438 C 336.570312 190.96875 336.996094 193.011719 337.183594 193.320312 C 338.523438 195.484375 338.160156 225.777344 336.714844 232.46875 C 335.792969 236.753906 336.074219 236.570312 332.921875 234.9375 C 328.394531 232.589844 323.949219 231.894531 321.25 233.109375 C 320.242188 233.566406 311.234375 224.414062 308.628906 220.28125 C 308.152344 219.527344 307.585938 218.699219 307.371094 218.4375 C 306.488281 217.367188 302.066406 211.46875 300.832031 209.714844 C 300.101562 208.675781 299.375 207.722656 299.21875 207.597656 C 298.738281 207.210938 295.621094 202.386719 294.824219 200.800781 C 293.988281 199.136719 287.972656 192.894531 285.109375 190.71875 C 280.449219 187.179688 275.214844 187.9375 272.398438 192.5625 C 271.929688 193.335938 269.808594 195.742188 267.691406 197.90625 C 264.308594 201.359375 263.503906 202.519531 261.15625 207.371094 C 257.597656 214.71875 256.746094 215.988281 253.894531 218.222656 C 252.5625 219.261719 250.78125 220.667969 249.9375 221.34375 C 249.09375 222.019531 247.46875 224.179688 246.328125 226.144531 C 244.015625 230.117188 244.082031 230.078125 241.683594 228.792969 C 240.421875 228.117188 239.085938 227.871094 236.648438 227.871094 C 233 227.871094 232.394531 227.542969 231.457031 225.03125 C 230.289062 221.898438 229.75 221.09375 220.359375 208.371094 C 216.648438 203.34375 216.300781 202.914062 211.382812 197.300781 C 203.65625 188.484375 198.835938 182.449219 193.730469 175.191406 C 179.832031 155.453125 172.253906 153.746094 162.578125 168.167969 C 160.695312 170.972656 156.910156 175.671875 154.164062 178.613281 C 151.421875 181.554688 148.550781 184.832031 147.792969 185.90625 C 147.03125 186.976562 145.984375 188.40625 145.46875 189.085938 C 144.949219 189.761719 143.683594 191.664062 142.652344 193.3125 C 141.621094 194.960938 139.863281 197.757812 138.753906 199.53125 C 136.089844 203.78125 129.085938 214.214844 128.695312 214.507812 C 128.53125 214.636719 127.894531 215.464844 127.28125 216.351562 C 123.46875 221.882812 121.007812 223.378906 118.140625 221.917969 C 116.085938 220.871094 111.515625 220.632812 108.191406 221.402344 C 105.933594 221.925781 105.214844 221.554688 103.617188 219.023438 C 102.921875 217.925781 101.609375 216.519531 100.699219 215.894531 C 99.761719 215.25 97.804688 212.855469 96.171875 210.34375 C 88.429688 198.453125 77.351562 197.730469 71.65625 208.75 C 71.261719 209.507812 70.789062 210.234375 70.605469 210.363281 C 70.421875 210.488281 69.800781 211.519531 69.222656 212.65625 C 64.882812 221.21875 54.058594 234.171875 51.644531 233.6875 C 50.859375 233.53125 49.652344 233.402344 48.964844 233.402344 C 47.484375 233.402344 47.007812 230.886719 46.109375 218.300781 C 45.375 208.046875 47.242188 187.054688 49.59375 179.101562 C 49.941406 177.921875 50.480469 175.8125 50.792969 174.417969 C 51.746094 170.140625 56.265625 157.003906 58.246094 152.761719 C 61 146.855469 65.304688 138.445312 65.941406 137.71875 C 66.199219 137.429688 66.792969 136.496094 67.261719 135.644531 C 67.730469 134.796875 68.933594 132.882812 69.9375 131.394531 C 70.9375 129.910156 72.277344 127.90625 72.910156 126.949219 C 77.695312 119.710938 87.519531 108.824219 95.492188 101.929688 C 98.152344 99.628906 100.683594 97.425781 101.117188 97.03125 C 101.867188 96.347656 102.707031 95.714844 107.472656 92.257812 C 108.613281 91.429688 111.203125 89.730469 113.230469 88.480469 C 115.257812 87.230469 117.023438 86.0625 117.15625 85.878906 C 117.535156 85.351562 131.578125 78.34375 135 76.972656 C 136.710938 76.289062 138.738281 75.441406 139.496094 75.09375 C 140.957031 74.429688 149.277344 71.683594 152.398438 70.835938 C 153.414062 70.558594 155.28125 70.023438 156.546875 69.644531 C 159 68.910156 162.816406 68.195312 168.066406 67.492188 C 169.839844 67.253906 172.328125 66.847656 173.597656 66.589844 C 177.914062 65.710938 201.039062 65.378906 207.234375 66.109375 M 163.605469 238.554688 C 160.230469 241.386719 155.761719 245.25 153.671875 247.132812 C 149.535156 250.863281 149.445312 250.886719 145.488281 249.375 C 123.210938 240.84375 122.109375 241.226562 129.828125 254.828125 C 135.550781 264.917969 135.507812 264.558594 131.523438 268.652344 C 128.1875 272.078125 120.78125 280.667969 118.132812 284.179688 C 114.746094 288.671875 116.015625 290.1875 121.355469 288.019531 C 122.96875 287.363281 126.671875 286.1875 129.589844 285.40625 C 132.503906 284.625 136.710938 283.5 138.933594 282.90625 C 144.269531 281.480469 143.5625 280.789062 149.84375 293.601562 C 156.074219 306.320312 156.847656 307.589844 158.363281 307.589844 C 160.089844 307.589844 160.339844 306.84375 161.601562 297.90625 C 162.691406 290.179688 163.808594 282.546875 164.40625 278.71875 C 164.6875 276.933594 164.441406 277.027344 174.03125 275.085938 C 192.164062 271.414062 193.585938 270.386719 185.578125 266.746094 C 183.042969 265.597656 179.519531 263.980469 177.742188 263.160156 C 175.96875 262.339844 173.308594 261.171875 171.832031 260.566406 C 168.644531 259.261719 168.09375 258.472656 168.710938 256.09375 C 170.265625 250.117188 172.089844 235.484375 171.441406 234.207031 C 170.730469 232.8125 169.902344 233.273438 163.605469 238.554688 M 165.53125 243.511719 C 165.53125 244.003906 165.324219 244.535156 165.070312 244.691406 C 164.816406 244.847656 164.609375 245.390625 164.609375 245.898438 C 164.609375 246.40625 164.816406 246.691406 165.070312 246.535156 C 165.324219 246.378906 165.53125 245.804688 165.53125 245.257812 C 165.53125 244.339844 165.589844 244.320312 166.28125 245.015625 C 167.082031 245.8125 166.910156 246.976562 164.769531 255.289062 C 164.121094 257.808594 162.691406 260.128906 161.785156 260.128906 C 161.589844 260.128906 160.667969 260.644531 159.738281 261.273438 C 156.894531 263.203125 156.292969 261.429688 158.621094 257.984375 C 159.378906 256.855469 160.003906 255.714844 160.003906 255.449219 C 160.003906 255.183594 160.578125 254.105469 161.285156 253.054688 C 162.804688 250.792969 163.847656 248.394531 163.617188 247.695312 C 163.523438 247.421875 162.621094 248.808594 161.609375 250.78125 C 160.597656 252.753906 159.617188 254.4375 159.425781 254.523438 C 159.238281 254.605469 159.082031 255.058594 159.082031 255.527344 C 159.082031 255.992188 158.808594 256.652344 158.480469 256.984375 C 157.949219 257.519531 156.871094 259.382812 155.855469 261.511719 C 155.101562 263.089844 150.898438 263.113281 149.523438 261.546875 C 148.835938 260.765625 148.09375 260.128906 147.871094 260.128906 C 147.644531 260.128906 146.605469 259.457031 145.554688 258.636719 C 144.503906 257.8125 143.375 256.933594 143.046875 256.675781 C 142.71875 256.421875 142.09375 255.886719 141.664062 255.488281 C 141.230469 255.089844 139.375 253.664062 137.539062 252.316406 C 131.386719 247.800781 132.769531 247.683594 142.8125 251.871094 C 146.40625 253.371094 149.539062 254.597656 149.765625 254.597656 C 150.65625 254.597656 151.640625 256.3125 151.949219 258.402344 C 152.128906 259.605469 152.472656 260.589844 152.71875 260.589844 C 153.195312 260.589844 152.894531 258.582031 152.054688 256.136719 C 151.347656 254.085938 151.964844 253.3125 158.894531 247.519531 C 165.066406 242.359375 165.53125 242.078125 165.53125 243.511719 M 134.453125 251.09375 C 134.972656 251.625 138.753906 254.554688 142.859375 257.59375 C 151.796875 264.21875 151.886719 264.457031 145.457031 264.636719 L 140.828125 264.765625 L 139.433594 263.023438 C 137.453125 260.550781 131.433594 250.804688 131.433594 250.078125 C 131.433594 249.238281 133.238281 249.84375 134.453125 251.09375 M 168.757812 263.308594 C 171.671875 264.546875 174.4375 265.6875 174.902344 265.839844 C 177.121094 266.574219 175.230469 267.269531 171.285156 267.171875 C 168.5625 267.105469 167.375 267.226562 167.6875 267.535156 C 167.941406 267.789062 169.929688 268.074219 172.109375 268.164062 C 178.691406 268.441406 182.035156 270.296875 177.167969 270.972656 C 175.964844 271.140625 172.421875 271.777344 169.300781 272.382812 C 162.828125 273.644531 162.992188 273.679688 159.558594 270.195312 C 156.457031 267.042969 156.894531 266.335938 161.71875 266.746094 C 163.5625 266.902344 165.070312 266.851562 165.070312 266.632812 C 165.070312 266.089844 162.699219 265.65625 159.714844 265.65625 C 156.507812 265.65625 156.320312 264.519531 159.195312 262.503906 C 161.855469 260.636719 162.648438 260.703125 168.757812 263.308594 M 150.15625 265.796875 C 150.613281 266.25 149.375 268.421875 148.65625 268.421875 C 148.335938 268.421875 147.144531 269.046875 146.019531 269.804688 C 144.894531 270.566406 143.855469 271.1875 143.714844 271.1875 C 143.574219 271.1875 142.539062 271.808594 141.410156 272.570312 C 140.285156 273.332031 139.25 273.953125 139.109375 273.953125 C 138.96875 273.953125 137.929688 274.574219 136.804688 275.335938 C 135.675781 276.09375 134.640625 276.71875 134.5 276.71875 C 134.359375 276.71875 133.351562 277.289062 132.261719 277.984375 C 131.171875 278.679688 129.867188 279.511719 129.359375 279.828125 C 123.585938 283.457031 123.664062 282.15625 129.621094 275.566406 C 135.96875 268.539062 138.519531 265.886719 139.238281 265.5625 C 140.144531 265.15625 149.71875 265.359375 150.15625 265.796875 M 158.332031 270.164062 C 159.125 271.070312 160.054688 272.089844 160.398438 272.4375 C 161.246094 273.285156 161.199219 274.03125 159.808594 282.015625 C 159.148438 285.816406 158.5 289.601562 158.363281 290.425781 C 157.980469 292.765625 157.394531 292.191406 156.953125 289.042969 L 156.550781 286.164062 L 156.414062 290.195312 C 156.222656 295.960938 155.652344 295.585938 151.265625 286.835938 C 147.558594 279.4375 146.957031 277.332031 148.253906 276.257812 C 148.632812 275.941406 148.945312 275.480469 148.945312 275.230469 C 148.945312 274.980469 149.566406 273.855469 150.324219 272.730469 C 151.085938 271.601562 151.707031 270.355469 151.707031 269.957031 C 151.707031 269.433594 152.027344 269.296875 152.875 269.460938 C 153.707031 269.621094 154.183594 269.429688 154.519531 268.800781 C 155.160156 267.601562 156.507812 268.082031 158.332031 270.164062 M 150.875 269.59375 C 150.796875 270.089844 150.328125 271.058594 149.835938 271.746094 C 149.34375 272.433594 148.945312 273.210938 148.945312 273.472656 C 148.945312 273.738281 148.757812 273.953125 148.53125 273.953125 C 148.304688 273.953125 148 274.445312 147.847656 275.042969 C 147.550781 276.226562 145.390625 277.3125 140.417969 278.773438 C 138.898438 279.222656 136.105469 280.082031 134.210938 280.6875 C 128.355469 282.554688 127.976562 281.164062 133.566406 278.316406 C 134.546875 277.816406 135.453125 277.304688 135.582031 277.179688 C 135.953125 276.808594 137.5625 275.832031 138.804688 275.226562 C 139.441406 274.921875 141.125 273.882812 142.550781 272.925781 C 143.972656 271.972656 145.261719 271.1875 145.410156 271.1875 C 145.5625 271.1875 146.574219 270.570312 147.660156 269.8125 C 149.855469 268.285156 151.09375 268.199219 150.875 269.59375 M 154.75 276.71875 C 154.902344 279.632812 155.183594 282.183594 155.371094 282.386719 C 155.839844 282.886719 155.371094 273.496094 154.871094 272.339844 C 154.632812 271.792969 154.582031 273.585938 154.75 276.71875 " fill-opacity="1" fill-rule="evenodd"/><path fill="#a0afc1" d="M 171.882812 167.390625 C 171.226562 168.089844 169.496094 170.421875 168.039062 172.578125 C 164.796875 177.363281 164.011719 178.332031 159.839844 182.71875 C 155.304688 187.480469 146.179688 199.613281 146.179688 200.882812 C 146.179688 201.230469 135.03125 217.867188 133.539062 219.742188 C 125.742188 229.550781 120.949219 232.09375 116.195312 228.949219 C 114.621094 227.90625 114.082031 227.792969 111.96875 228.046875 C 103.125 229.113281 101.972656 228.808594 99.121094 224.648438 C 98.164062 223.253906 96.46875 221.386719 95.347656 220.5 C 93.421875 218.976562 90.972656 215.808594 89.570312 213.023438 C 85.695312 205.34375 79.964844 207.039062 74.679688 217.425781 C 69.363281 227.867188 56.105469 242.238281 52.484375 241.488281 C 47.210938 240.390625 45.621094 240.914062 41.78125 244.988281 C 37.878906 249.136719 35.984375 252.195312 31.414062 261.742188 C 29.507812 265.726562 26.851562 269.3125 21.976562 274.472656 C 9.878906 287.296875 8.753906 293.441406 20.242188 283.976562 C 22.066406 282.472656 23.621094 281.066406 23.695312 280.847656 C 23.773438 280.632812 25.082031 279.140625 26.601562 277.53125 C 29.589844 274.363281 33.410156 270.164062 34.914062 268.382812 C 35.429688 267.769531 38.210938 264.574219 41.089844 261.28125 C 43.972656 257.984375 46.886719 254.644531 47.570312 253.859375 C 48.710938 252.539062 49.089844 252.40625 52.355469 252.199219 C 55.988281 251.964844 58.625 250.507812 58.625 248.730469 C 58.625 248.386719 60.457031 246.199219 62.695312 243.863281 C 64.9375 241.53125 67.496094 238.480469 68.382812 237.089844 C 78.765625 220.792969 80.46875 219.910156 87.644531 227.085938 C 94.15625 233.597656 94.71875 236.039062 91.300781 242.933594 C 88.488281 248.609375 87.980469 251.097656 89.4375 252.117188 C 92.070312 253.964844 89.675781 257.792969 83.140625 262.179688 C 79.09375 264.898438 77.066406 268.644531 77.046875 273.433594 C 77.03125 278.828125 70.914062 286.097656 61.609375 291.789062 C 50.203125 298.761719 48.460938 300.351562 50.847656 301.628906 C 53.820312 303.21875 61.640625 299.226562 77.519531 288.007812 C 78.914062 287.023438 80.988281 285.589844 82.128906 284.828125 C 85.492188 282.570312 91.625 275.605469 95.753906 269.34375 C 98.480469 265.214844 108.382812 251.769531 112.308594 246.867188 C 115.882812 242.40625 116.53125 241.96875 118.25 242.859375 C 120.292969 243.917969 124.9375 243.328125 127.050781 241.734375 C 127.308594 241.542969 128.828125 240.90625 130.433594 240.320312 C 132.699219 239.492188 134.160156 238.492188 136.996094 235.824219 C 140.332031 232.683594 142.039062 230.421875 146.640625 223.035156 C 148.394531 220.214844 152.835938 215.761719 157.96875 211.664062 C 162.023438 208.433594 163.253906 206.984375 165.050781 203.332031 C 170.46875 192.324219 175.332031 191.171875 182.410156 199.210938 C 184.125 201.164062 187.023438 204.210938 188.851562 205.988281 C 191.085938 208.160156 192.558594 210.070312 193.367188 211.835938 C 194.027344 213.277344 194.785156 214.59375 195.054688 214.757812 C 198.703125 217.015625 198.910156 220.53125 195.828125 227.867188 L 193.410156 233.632812 L 188.285156 238.804688 C 178.226562 248.957031 178.882812 250.15625 194.910156 250.925781 C 210.113281 251.660156 209.824219 251.574219 208.5625 254.953125 C 205.835938 262.257812 200.082031 269.816406 192.125 276.550781 C 188.808594 279.355469 186.117188 281.992188 185.96875 282.582031 C 185.292969 285.285156 187.304688 287.167969 189.644531 286.019531 C 194.382812 283.699219 197.730469 282.46875 201.394531 281.699219 C 206.707031 280.578125 210.730469 278.800781 213.496094 276.34375 C 214.660156 275.308594 216.527344 274.113281 217.644531 273.679688 C 218.761719 273.25 220.566406 272.046875 221.65625 271.003906 C 223.527344 269.214844 223.769531 269.121094 226.148438 269.222656 C 232.683594 269.507812 233.722656 271.859375 230.066406 278.066406 C 224.191406 288.027344 224.433594 289.308594 231.558594 285.953125 C 233.738281 284.929688 236.101562 284.085938 236.8125 284.085938 C 238.71875 284.078125 242.3125 282.132812 245.710938 279.265625 C 252.84375 273.25 264.941406 272.414062 272.699219 277.398438 C 273.222656 277.734375 274.984375 278.429688 276.617188 278.941406 C 282.152344 280.675781 292.710938 286.738281 307.566406 296.710938 C 318.050781 303.746094 318.980469 304.265625 318.980469 303.066406 C 318.980469 302.214844 316.65625 299.871094 310.445312 294.457031 C 308.699219 292.9375 306.949219 291.382812 306.550781 291.003906 C 306.152344 290.621094 303.863281 288.570312 301.460938 286.445312 C 299.058594 284.316406 295.949219 281.511719 294.554688 280.210938 C 293.164062 278.910156 290.363281 276.402344 288.335938 274.632812 C 286.308594 272.863281 284.546875 271.308594 284.417969 271.175781 C 284.292969 271.039062 280.871094 267.945312 276.816406 264.292969 C 272.761719 260.640625 267.71875 256.097656 265.613281 254.195312 C 263.511719 252.289062 261.230469 250.394531 260.546875 249.976562 C 258.949219 249.007812 254.460938 244.429688 254.484375 243.792969 C 254.492188 243.527344 255.550781 242.167969 256.839844 240.773438 C 261.546875 235.675781 265.777344 230.128906 267.109375 227.3125 C 268.285156 224.832031 276.914062 216.351562 278.261719 216.351562 C 279.03125 216.351562 279.996094 217.195312 281.671875 219.328125 C 282.960938 220.964844 285.625 223.640625 287.597656 225.273438 C 293.695312 230.316406 294.246094 232.71875 290.578125 238.289062 C 289.722656 239.582031 289.027344 240.792969 289.027344 240.980469 C 289.027344 241.898438 285.09375 246.75 283.03125 248.378906 C 280.617188 250.285156 279.753906 251.960938 280.699219 252.90625 C 281.339844 253.542969 289.019531 253.417969 291.410156 252.734375 C 294.097656 251.964844 304.507812 252.175781 305.351562 253.019531 C 307.199219 254.867188 303.730469 262.636719 300.207031 264.53125 C 296.613281 266.46875 294.953125 270.808594 297.558594 271.460938 C 300.222656 272.128906 313.183594 268.726562 315.96875 266.625 C 316.230469 266.429688 317.851562 265.683594 319.570312 264.96875 C 323.449219 263.351562 324.023438 263.65625 323.230469 266.921875 C 321.714844 273.183594 322.210938 276.292969 324.597656 275.535156 C 327.511719 274.613281 330.042969 273.078125 332.628906 270.675781 C 336.242188 267.3125 337.574219 267.105469 342.019531 269.226562 C 344.195312 270.261719 348.96875 272.957031 351.234375 274.425781 C 351.613281 274.671875 353.171875 275.472656 354.691406 276.207031 C 358.023438 277.808594 364.035156 281.828125 370.589844 286.832031 C 389.796875 301.503906 364.316406 268.894531 341.886719 250.105469 C 329.875 240.039062 326.351562 238.292969 321.753906 240.132812 C 320.640625 240.578125 319.414062 240.753906 318.683594 240.570312 C 316.382812 239.992188 305.046875 227.800781 300.445312 220.960938 C 300.019531 220.328125 298.054688 217.683594 296.078125 215.085938 C 291.894531 209.589844 290.859375 208.078125 289.445312 205.410156 C 288.140625 202.953125 281.148438 196.078125 279.953125 196.078125 C 279.464844 196.078125 278.570312 196.75 277.96875 197.574219 C 277.363281 198.398438 276.445312 199.371094 275.921875 199.734375 C 272.84375 201.882812 269.496094 206.179688 266.945312 211.257812 C 265.476562 214.1875 263.972656 217.128906 263.609375 217.796875 C 262.535156 219.773438 260.25 222.15625 257.257812 224.433594 C 254.710938 226.371094 253.390625 227.820312 251.835938 230.40625 C 251.53125 230.914062 250.726562 232.261719 250.046875 233.402344 C 247.097656 238.367188 245.78125 238.863281 241.636719 236.570312 C 239.617188 235.457031 238.199219 235.058594 235.34375 234.800781 C 230.074219 234.324219 225.4375 231.566406 225.4375 228.910156 C 225.4375 227.890625 222.972656 223.660156 220.003906 219.578125 C 218.433594 217.425781 216.480469 214.726562 215.660156 213.585938 C 213.273438 210.269531 208.917969 204.910156 205.171875 200.683594 C 198.28125 192.910156 196.429688 190.628906 189.46875 181.332031 C 178.046875 166.070312 175.230469 163.839844 171.882812 167.390625 M 179.109375 169.925781 C 180.644531 171.511719 183.054688 174.363281 184.464844 176.261719 C 193.3125 188.191406 195.53125 191.027344 201.046875 197.460938 C 204.417969 201.386719 207.304688 204.707031 207.460938 204.832031 C 208.097656 205.34375 213.855469 212.644531 215.296875 214.769531 C 216.148438 216.019531 217.972656 218.554688 219.355469 220.40625 C 220.734375 222.253906 222.761719 225.601562 223.855469 227.839844 C 226.816406 233.886719 228.890625 235.332031 235.574219 236 C 237.597656 236.199219 239.574219 236.796875 241.667969 237.84375 C 246.539062 240.277344 247.511719 239.742188 251.96875 232.171875 C 254.066406 228.605469 255.09375 227.394531 257.84375 225.234375 C 262.402344 221.652344 263.917969 219.652344 267.523438 212.46875 C 270.589844 206.359375 272.390625 203.972656 276.65625 200.371094 C 277.582031 199.589844 278.574219 198.511719 278.859375 197.972656 C 279.148438 197.4375 279.65625 197 279.992188 197 C 280.660156 197 287.011719 203.242188 287.777344 204.652344 C 291.050781 210.664062 305.234375 229.351562 311.121094 235.40625 C 316.664062 241.101562 317.898438 241.917969 320.308594 241.476562 C 326.339844 240.371094 327.183594 240.515625 331.652344 243.449219 C 342.683594 250.695312 364.707031 272.398438 373.527344 284.714844 C 377.738281 290.59375 377.132812 290.621094 369.554688 284.882812 C 362.179688 279.296875 360.53125 278.191406 355.824219 275.683594 C 353.660156 274.527344 350.757812 272.914062 349.375 272.097656 C 338.289062 265.546875 336.867188 265.355469 332.199219 269.753906 C 329.585938 272.222656 326.964844 273.761719 324.558594 274.242188 C 322.792969 274.59375 322.835938 275.15625 324.0625 267.910156 C 324.914062 262.867188 323.847656 261.699219 320.085938 263.550781 C 309.824219 268.605469 298.355469 271.964844 297.652344 270.125 C 297.214844 268.992188 298.636719 266.632812 300.445312 265.492188 C 304.828125 262.722656 308.4375 254.472656 306.226562 252.265625 C 305.34375 251.375 297.523438 250.785156 293.832031 251.324219 C 281.871094 253.082031 279.820312 252.546875 284.148438 248.8125 C 286.660156 246.644531 289.949219 242.367188 289.949219 241.269531 C 289.949219 240.941406 290.53125 239.921875 291.246094 239 C 295.484375 233.519531 294.707031 229.617188 288.382812 224.648438 C 286.765625 223.378906 284.261719 220.894531 282.820312 219.132812 C 278.792969 214.210938 278.175781 214.1875 273.421875 218.8125 C 268.398438 223.695312 267.792969 224.410156 265.527344 228.136719 C 263.472656 231.511719 259.3125 236.765625 255.519531 240.773438 C 252.554688 243.910156 253.222656 245.667969 259.0625 250.085938 C 260.714844 251.335938 269.566406 259.09375 278.726562 267.324219 C 287.886719 275.554688 295.902344 282.746094 296.535156 283.304688 C 297.972656 284.574219 308.832031 294.328125 311.347656 296.609375 C 314.828125 299.769531 312.675781 298.878906 306.023438 294.40625 C 295.785156 287.523438 279.3125 278.101562 277.523438 278.101562 C 277.242188 278.101562 275.726562 277.550781 274.152344 276.878906 C 260.84375 271.214844 252.847656 271.816406 244.097656 279.148438 C 240.996094 281.746094 238.289062 283.144531 236.328125 283.15625 C 235.601562 283.164062 233.457031 283.894531 231.5625 284.78125 C 226.390625 287.203125 226.144531 286.640625 229.75 280.632812 C 235.160156 271.613281 234.28125 268.421875 226.382812 268.421875 C 222.898438 268.421875 222.839844 268.445312 221.121094 270.203125 C 220.164062 271.183594 218.613281 272.214844 217.671875 272.492188 C 216.730469 272.777344 214.851562 273.957031 213.492188 275.117188 C 209.832031 278.242188 205.910156 279.957031 200.785156 280.679688 C 198.644531 280.980469 194.378906 282.570312 191.105469 284.28125 C 185.484375 287.226562 185.433594 283.226562 191.035156 278.792969 C 199.367188 272.199219 204.164062 266.378906 208.5 257.59375 C 211.605469 251.296875 210.964844 250.675781 200.960938 250.269531 C 190.84375 249.863281 183.613281 249.066406 182.964844 248.285156 C 182.082031 247.21875 183.84375 244.683594 189.273438 239.210938 C 192.769531 235.6875 194.613281 233.449219 195.191406 232.019531 C 195.652344 230.878906 196.628906 228.652344 197.363281 227.070312 C 199.84375 221.722656 199.730469 218.574219 196.9375 215.367188 C 195.972656 214.261719 194.578125 212.136719 193.835938 210.644531 C 192.996094 208.949219 191.574219 207.132812 190.058594 205.804688 C 188.71875 204.636719 186.101562 201.902344 184.242188 199.730469 C 175.402344 189.410156 170.042969 190.601562 163.359375 204.371094 C 162.257812 206.640625 160.761719 208.167969 155.089844 212.820312 C 150.738281 216.386719 147.277344 220.050781 145.414062 223.058594 C 139.234375 233.042969 134.816406 237.804688 130.480469 239.167969 C 129.863281 239.363281 128.324219 240 127.054688 240.582031 C 123.105469 242.402344 121.109375 242.746094 119.183594 241.941406 C 116.574219 240.851562 116.019531 241.042969 113.386719 243.953125 C 111.078125 246.503906 108.636719 249.769531 98.542969 263.816406 C 87.554688 279.101562 85.488281 281.460938 79.675781 285.339844 C 77.097656 287.058594 74.144531 289.113281 73.109375 289.898438 C 72.078125 290.6875 71.039062 291.414062 70.804688 291.511719 C 70.570312 291.613281 68.613281 292.863281 66.460938 294.292969 C 60.496094 298.246094 54.535156 301.140625 52.347656 301.140625 C 50.523438 301.140625 51.078125 299.660156 53.460938 298.167969 C 72.507812 286.25 77.167969 281.59375 77.984375 273.671875 C 78.636719 267.351562 79.417969 266.171875 86.273438 261.109375 C 90.875 257.71875 92.640625 253.613281 90.386719 251.570312 C 89.117188 250.425781 89.359375 249.375 92.289062 243.199219 C 95.65625 236.113281 94.976562 232.910156 88.796875 226.734375 C 80.867188 218.800781 77.734375 220 68.964844 234.324219 C 67.347656 236.964844 64.679688 240.371094 62.234375 242.914062 C 60.003906 245.230469 57.980469 247.65625 57.734375 248.304688 C 57.042969 250.121094 55.246094 251.015625 51.789062 251.261719 C 47.980469 251.535156 48.601562 251.046875 41.363281 259.4375 C 38.085938 263.238281 33.527344 268.429688 31.234375 270.972656 C 28.9375 273.511719 25.816406 277.015625 24.296875 278.75 C 20.285156 283.328125 13.929688 287.992188 13.929688 286.359375 C 13.929688 285.585938 18.601562 279.613281 22.195312 275.796875 C 28.011719 269.613281 31.46875 264.648438 33.808594 259.121094 C 38.191406 248.757812 45.921875 240.78125 50.3125 242.097656 C 52.960938 242.890625 54.113281 242.738281 56.347656 241.300781 C 60.621094 238.550781 68.792969 228.832031 74.070312 220.222656 C 81.050781 208.828125 82.597656 207.496094 85.753906 210.152344 C 87.03125 211.226562 90.878906 216.523438 90.886719 217.210938 C 90.886719 217.671875 93.492188 220.332031 95.238281 221.667969 C 96.109375 222.332031 97.488281 223.914062 98.304688 225.183594 C 101.117188 229.566406 104.863281 230.578125 112.4375 229 C 113.636719 228.75 114.328125 228.941406 115.824219 229.929688 C 122.265625 234.191406 129.152344 228.855469 141.355469 210.132812 C 155.421875 188.558594 154.789062 189.429688 161.597656 182.230469 C 163.890625 179.808594 166.988281 175.972656 168.484375 173.707031 C 173.761719 165.707031 174.699219 165.375 179.109375 169.925781 " fill-opacity="1" fill-rule="evenodd"/></svg>