<?xml version="1.0" encoding="utf-8"?>
<svg xmlns="http://www.w3.org/2000/svg" width="500px" height="500px" viewBox="0 0 500 500" version="1.1">
  <g id="surface1">
    <path style=" stroke:none;fill-rule:nonzero;fill:rgb(94.901961%,94.509804%,93.725491%);fill-opacity:1;" d="M 376.464844 111.816406 C 377.058594 112.097656 377.65625 112.375 378.253906 112.652344 C 388.023438 117.34375 397.355469 124.464844 404.296875 132.8125 C 404.851562 133.449219 404.851562 133.449219 405.421875 134.101562 C 415.566406 145.902344 422.316406 160.035156 425.292969 175.292969 C 425.402344 175.824219 425.402344 175.824219 425.515625 176.367188 C 429.65625 196.960938 425.367188 218.484375 415.527344 236.816406 C 415.238281 237.371094 414.949219 237.925781 414.652344 238.496094 C 409.296875 248.359375 401.851562 256.464844 393.902344 264.285156 C 393 265.175781 393 265.175781 392.058594 266.417969 C 391.203125 267.46875 390.367188 268.25 389.339844 269.121094 C 387.261719 270.925781 385.3125 272.828125 383.375 274.78125 C 382.832031 275.324219 382.832031 275.324219 382.28125 275.878906 C 381.503906 276.65625 380.726562 277.4375 379.949219 278.214844 C 378.71875 279.453125 377.488281 280.6875 376.253906 281.925781 C 373.636719 284.546875 371.023438 287.171875 368.40625 289.796875 C 365.375 292.839844 362.34375 295.878906 359.308594 298.921875 C 358.101562 300.132812 356.890625 301.347656 355.683594 302.5625 C 354.9375 303.3125 354.191406 304.058594 353.441406 304.808594 C 353.109375 305.140625 352.78125 305.476562 352.4375 305.820312 C 350.546875 307.710938 348.605469 309.511719 346.574219 311.25 C 345.246094 312.410156 344.007812 313.652344 342.773438 314.910156 C 342.414062 315.273438 342.414062 315.273438 342.050781 315.640625 C 341.476562 316.21875 340.902344 316.800781 340.332031 317.382812 C 338.941406 316.746094 337.894531 316.058594 336.78125 315.011719 C 336.480469 314.730469 336.179688 314.449219 335.871094 314.15625 C 335.546875 313.847656 335.222656 313.539062 334.890625 313.222656 C 334.546875 312.898438 334.203125 312.574219 333.851562 312.238281 C 330.191406 308.757812 326.628906 305.1875 323.078125 301.597656 C 321.890625 300.402344 320.703125 299.207031 319.511719 298.011719 C 316.136719 294.621094 312.765625 291.226562 309.398438 287.832031 C 307.320312 285.734375 305.242188 283.644531 303.160156 281.554688 C 302.375 280.769531 301.59375 279.980469 300.8125 279.1875 C 292.472656 270.746094 283.339844 261.660156 270.65625 261.515625 C 270 261.519531 270 261.519531 269.332031 261.519531 C 268.855469 261.519531 268.378906 261.515625 267.890625 261.511719 C 266.332031 261.503906 264.773438 261.503906 263.21875 261.507812 C 262.125 261.503906 261.03125 261.503906 259.9375 261.5 C 257.652344 261.496094 255.363281 261.496094 253.078125 261.5 C 250.164062 261.507812 247.25 261.496094 244.332031 261.484375 C 242.078125 261.472656 239.820312 261.472656 237.5625 261.476562 C 236.488281 261.476562 235.414062 261.472656 234.339844 261.46875 C 228.664062 261.441406 223.566406 261.425781 218.261719 263.671875 C 217.820312 263.855469 217.375 264.039062 216.921875 264.230469 C 208.242188 268.039062 201.015625 276.976562 194.425781 283.539062 C 194.011719 283.953125 193.59375 284.367188 193.164062 284.796875 C 192.578125 285.382812 192.578125 285.382812 191.976562 285.984375 C 191.628906 286.332031 191.285156 286.679688 190.929688 287.035156 C 189.894531 288.101562 189.894531 288.101562 188.898438 289.4375 C 188.597656 289.796875 188.296875 290.15625 187.988281 290.527344 C 187.664062 290.527344 187.34375 290.527344 187.011719 290.527344 C 186.882812 290.816406 186.753906 291.105469 186.625 291.40625 C 186.003906 292.535156 185.394531 293.191406 184.441406 294.046875 C 184.125 294.332031 183.8125 294.621094 183.488281 294.914062 C 183.160156 295.210938 182.832031 295.503906 182.496094 295.808594 C 180.644531 297.472656 178.839844 299.109375 177.253906 301.03125 C 176.25 302.238281 175.207031 303.273438 174.011719 304.292969 C 171.191406 306.695312 168.621094 309.351562 166.015625 311.980469 C 165.492188 312.507812 164.96875 313.03125 164.445312 313.558594 C 163.175781 314.832031 161.910156 316.105469 160.644531 317.382812 C 157.480469 314.753906 154.621094 311.878906 151.738281 308.945312 C 151.371094 308.574219 151 308.199219 150.621094 307.816406 C 150.296875 307.484375 149.96875 307.152344 149.632812 306.8125 C 148.667969 305.882812 147.683594 305.011719 146.667969 304.140625 C 144.480469 302.230469 142.429688 300.207031 140.382812 298.148438 C 139.992188 297.753906 139.597656 297.355469 139.191406 296.949219 C 138.339844 296.097656 137.492188 295.246094 136.640625 294.394531 C 135.296875 293.042969 133.949219 291.691406 132.601562 290.339844 C 129.496094 287.230469 126.398438 284.121094 123.296875 281.007812 C 120.222656 277.925781 117.152344 274.84375 114.078125 271.765625 C 112.753906 270.4375 111.433594 269.109375 110.113281 267.785156 C 109.296875 266.964844 108.480469 266.148438 107.664062 265.328125 C 107.117188 264.78125 107.117188 264.78125 106.5625 264.21875 C 104.597656 262.257812 102.589844 260.382812 100.472656 258.582031 C 98.882812 257.164062 97.546875 255.546875 96.191406 253.90625 C 95.984375 253.664062 95.777344 253.421875 95.566406 253.175781 C 82.621094 238.019531 73.828125 217.660156 73.613281 197.566406 C 73.609375 197.191406 73.605469 196.816406 73.601562 196.429688 C 73.515625 188.070312 73.613281 180.027344 75.683594 171.875 C 75.78125 171.46875 75.882812 171.066406 75.984375 170.648438 C 81.648438 148.195312 96.078125 127.921875 115.90625 115.84375 C 129.925781 107.613281 144.5625 103.785156 160.765625 103.789062 C 161.242188 103.789062 161.714844 103.789062 162.203125 103.789062 C 169.910156 103.804688 177.121094 104.328125 184.570312 106.445312 C 185.019531 106.570312 185.46875 106.695312 185.933594 106.824219 C 204.558594 112.175781 221.261719 124.105469 233.277344 139.25 C 234.519531 140.804688 235.800781 142.316406 237.089844 143.828125 C 239.039062 146.113281 240.921875 148.433594 242.75 150.820312 C 244.347656 152.652344 245.972656 154.203125 248.453125 154.414062 C 252.785156 154.570312 252.785156 154.570312 256.347656 152.34375 C 258.996094 149.640625 261.285156 146.652344 263.601562 143.667969 C 265.625 141.078125 267.792969 138.648438 270.019531 136.230469 C 270.730469 135.425781 271.445312 134.625 272.15625 133.820312 C 278.402344 126.914062 285.199219 121.320312 292.96875 116.210938 C 293.394531 115.925781 293.820312 115.644531 294.257812 115.351562 C 318.320312 100.28125 351.214844 99.453125 376.464844 111.816406 Z M 376.464844 111.816406 "/>
    <path style=" stroke:none;fill-rule:nonzero;fill:rgb(11.372549%,20.784314%,36.470589%);fill-opacity:1;" d="M 228.515625 101.5625 C 228.945312 101.894531 229.371094 102.230469 229.8125 102.574219 C 233.8125 105.761719 237.519531 109.257812 241.210938 112.792969 C 241.453125 113.027344 241.699219 113.257812 241.949219 113.496094 C 244.902344 116.324219 247.523438 119.308594 250 122.558594 C 250.320312 122.234375 250.644531 121.914062 250.976562 121.582031 C 253.449219 119.109375 255.921875 116.636719 258.390625 114.167969 C 258.875 113.683594 258.875 113.683594 259.367188 113.191406 C 260.109375 112.449219 260.855469 111.707031 261.597656 110.964844 C 262.292969 110.269531 262.976562 109.566406 263.65625 108.851562 C 266.808594 105.566406 270.296875 102.824219 273.925781 100.097656 C 274.207031 99.886719 274.488281 99.671875 274.773438 99.453125 C 289.804688 88.132812 307.566406 81.703125 326.171875 79.589844 C 326.570312 79.542969 326.964844 79.496094 327.375 79.445312 C 331.183594 79.042969 334.992188 79.011719 338.820312 79.011719 C 339.925781 79.011719 341.027344 79 342.132812 78.992188 C 346.984375 78.972656 351.648438 79.355469 356.445312 80.078125 C 357.054688 80.167969 357.054688 80.167969 357.675781 80.257812 C 382.863281 84.0625 408.164062 97.648438 424.316406 117.675781 C 424.761719 118.210938 425.207031 118.746094 425.648438 119.285156 C 437.535156 133.742188 445.382812 150.453125 449.617188 168.671875 C 449.710938 169.082031 449.804688 169.488281 449.902344 169.910156 C 451.453125 176.957031 451.859375 183.855469 451.84375 191.039062 C 451.84375 191.714844 451.84375 191.714844 451.84375 192.402344 C 451.761719 222.691406 439.828125 251.535156 419.207031 273.605469 C 418.429688 274.445312 417.65625 275.292969 416.886719 276.140625 C 414.109375 279.175781 411.273438 282.097656 408.246094 284.882812 C 401.449219 291.210938 394.960938 297.859375 388.40625 304.429688 C 386.601562 306.242188 384.792969 308.050781 382.988281 309.859375 C 380.078125 312.773438 377.171875 315.6875 374.265625 318.601562 C 374.011719 318.855469 373.757812 319.109375 373.496094 319.375 C 373.277344 319.589844 373.058594 319.808594 372.835938 320.035156 C 372.582031 320.289062 372.332031 320.539062 372.070312 320.800781 C 371.527344 321.351562 371.527344 321.351562 370.96875 321.914062 C 369.4375 323.433594 367.855469 324.894531 366.269531 326.359375 C 362.421875 329.933594 358.699219 333.621094 354.992188 337.34375 C 354.292969 338.042969 353.597656 338.738281 352.898438 339.4375 C 351.414062 340.925781 349.929688 342.410156 348.445312 343.898438 C 346.097656 346.253906 343.746094 348.609375 341.398438 350.960938 C 336.410156 355.953125 331.429688 360.945312 326.445312 365.9375 C 321.054688 371.339844 315.660156 376.742188 310.265625 382.144531 C 307.929688 384.480469 305.597656 386.820312 303.265625 389.160156 C 301.8125 390.613281 300.359375 392.066406 298.910156 393.519531 C 298.238281 394.191406 297.566406 394.863281 296.898438 395.535156 C 290.511719 401.945312 290.511719 401.945312 287.109375 404.785156 C 286.539062 405.273438 285.96875 405.757812 285.398438 406.246094 C 275.160156 414.765625 263.792969 419.75 250.304688 419.648438 C 249.972656 419.644531 249.644531 419.644531 249.300781 419.644531 C 244.214844 419.613281 239.664062 419.226562 234.863281 417.480469 C 234.332031 417.304688 233.796875 417.125 233.246094 416.945312 C 224.125 413.714844 217.003906 408.375 209.960938 401.855469 C 209.503906 401.441406 209.050781 401.023438 208.578125 400.597656 C 204.484375 396.863281 200.542969 392.992188 196.632812 389.066406 C 195.960938 388.390625 195.289062 387.71875 194.617188 387.042969 C 193.179688 385.605469 191.746094 384.167969 190.3125 382.730469 C 188.039062 380.453125 185.769531 378.179688 183.496094 375.902344 C 178.675781 371.078125 173.855469 366.25 169.035156 361.417969 C 163.824219 356.195312 158.613281 350.972656 153.398438 345.753906 C 151.140625 343.496094 148.882812 341.234375 146.628906 338.972656 C 145.226562 337.566406 143.820312 336.160156 142.417969 334.753906 C 141.769531 334.105469 141.121094 333.453125 140.472656 332.804688 C 137.648438 329.96875 134.847656 327.15625 131.800781 324.558594 C 129.742188 322.746094 127.835938 320.773438 125.898438 318.832031 C 125.414062 318.347656 124.925781 317.863281 124.441406 317.378906 C 123.132812 316.070312 121.824219 314.765625 120.519531 313.457031 C 119.144531 312.082031 117.769531 310.707031 116.394531 309.332031 C 114.085938 307.023438 111.78125 304.71875 109.472656 302.410156 C 106.816406 299.746094 104.15625 297.089844 101.492188 294.429688 C 99.199219 292.136719 96.90625 289.847656 94.617188 287.554688 C 93.25 286.1875 91.886719 284.824219 90.519531 283.457031 C 89.234375 282.175781 87.953125 280.890625 86.667969 279.605469 C 85.980469 278.914062 85.289062 278.222656 84.597656 277.535156 C 82.179688 275.105469 79.851562 272.636719 77.636719 270.019531 C 77.394531 269.730469 77.148438 269.445312 76.898438 269.148438 C 72.457031 263.890625 68.632812 258.242188 64.941406 252.441406 C 64.742188 252.128906 64.542969 251.820312 64.339844 251.496094 C 57.667969 240.898438 53.558594 228.492188 50.84375 216.339844 C 50.703125 215.71875 50.703125 215.71875 50.558594 215.082031 C 49.0625 207.898438 48.664062 200.679688 48.699219 193.359375 C 48.707031 192.074219 48.699219 190.789062 48.695312 189.503906 C 48.691406 184.359375 49.011719 179.402344 49.804688 174.316406 C 49.871094 173.882812 49.9375 173.449219 50.003906 173 C 54.695312 144.210938 71.414062 117.199219 95.085938 100.097656 C 108.929688 90.296875 124.296875 83.21875 141.113281 80.566406 C 141.546875 80.492188 141.976562 80.421875 142.421875 80.347656 C 172.644531 75.402344 204.371094 82.503906 228.515625 101.5625 Z M 301.269531 111.816406 C 300.949219 111.964844 300.632812 112.109375 300.304688 112.261719 C 285.8125 118.972656 274.195312 130.5625 264.191406 142.761719 C 263.894531 143.121094 263.597656 143.484375 263.289062 143.855469 C 261.386719 146.171875 259.511719 148.507812 257.6875 150.886719 C 256.097656 152.691406 254.480469 154.207031 252.035156 154.414062 C 246.4375 154.535156 246.4375 154.535156 244.140625 152.34375 C 241.492188 149.640625 239.203125 146.65625 236.886719 143.671875 C 235.167969 141.46875 233.359375 139.375 231.464844 137.316406 C 230.550781 136.320312 229.667969 135.304688 228.789062 134.277344 C 225.140625 130.105469 221.144531 126.472656 216.796875 123.046875 C 216.328125 122.660156 215.855469 122.273438 215.371094 121.875 C 206.191406 114.496094 195.132812 109.019531 183.679688 106.21875 C 182.972656 106.042969 182.265625 105.859375 181.5625 105.667969 C 174.792969 103.859375 167.96875 103.808594 161.011719 103.789062 C 160.550781 103.789062 160.09375 103.785156 159.621094 103.78125 C 151.691406 103.746094 144.113281 104.527344 136.476562 106.78125 C 136.050781 106.90625 135.625 107.027344 135.1875 107.15625 C 130.796875 108.488281 126.667969 110.28125 122.558594 112.304688 C 122.234375 112.460938 121.910156 112.621094 121.578125 112.78125 C 100.214844 123.285156 85.363281 142.863281 77.636719 165.039062 C 77.136719 166.59375 76.6875 168.160156 76.261719 169.738281 C 76.175781 170.070312 76.085938 170.402344 75.992188 170.742188 C 74.199219 177.90625 73.472656 184.953125 73.546875 192.320312 C 73.550781 192.726562 73.550781 193.132812 73.554688 193.546875 C 73.589844 199.605469 73.828125 205.5 75.195312 211.425781 C 75.320312 211.992188 75.320312 211.992188 75.449219 212.566406 C 78.246094 224.871094 83.253906 236.910156 90.820312 247.070312 C 91.011719 247.332031 91.207031 247.589844 91.40625 247.859375 C 93.921875 251.234375 96.601562 254.441406 99.457031 257.539062 C 99.707031 257.808594 99.953125 258.078125 100.210938 258.359375 C 101.523438 259.753906 102.875 261.050781 104.332031 262.292969 C 106.511719 264.191406 108.554688 266.207031 110.59375 268.257812 C 110.984375 268.652344 111.378906 269.050781 111.785156 269.457031 C 112.636719 270.308594 113.484375 271.160156 114.335938 272.011719 C 115.679688 273.363281 117.027344 274.714844 118.375 276.066406 C 121.480469 279.175781 124.578125 282.285156 127.679688 285.398438 C 130.753906 288.480469 133.824219 291.5625 136.898438 294.640625 C 138.222656 295.96875 139.542969 297.296875 140.863281 298.621094 C 141.679688 299.441406 142.496094 300.257812 143.3125 301.078125 C 143.859375 301.625 143.859375 301.625 144.414062 302.1875 C 146.390625 304.164062 148.414062 306.054688 150.535156 307.875 C 151.628906 308.820312 152.652344 309.824219 153.671875 310.851562 C 154.054688 311.234375 154.4375 311.621094 154.835938 312.019531 C 155.222656 312.410156 155.609375 312.800781 156.007812 313.203125 C 156.40625 313.605469 156.808594 314.007812 157.222656 314.425781 C 158.203125 315.410156 159.179688 316.394531 160.15625 317.382812 C 163.390625 314.726562 166.308594 311.773438 169.25 308.808594 C 169.753906 308.300781 170.261719 307.792969 170.765625 307.285156 C 171.695312 306.351562 172.621094 305.417969 173.550781 304.484375 C 174.78125 303.246094 176.011719 302.015625 177.246094 300.78125 C 177.707031 300.316406 178.167969 299.847656 178.628906 299.382812 C 181.125 296.859375 183.609375 294.390625 186.363281 292.140625 C 186.578125 291.929688 186.792969 291.71875 187.011719 291.503906 C 187.011719 291.179688 187.011719 290.859375 187.011719 290.527344 C 187.292969 290.410156 187.574219 290.292969 187.863281 290.175781 C 189.195312 289.421875 189.953125 288.550781 190.945312 287.390625 C 193.226562 284.792969 195.617188 282.335938 198.066406 279.898438 C 198.765625 279.203125 199.460938 278.503906 200.15625 277.804688 C 202.691406 275.269531 205.273438 272.832031 208.007812 270.507812 C 208.453125 270.113281 208.898438 269.722656 209.359375 269.316406 C 215.316406 264.226562 221.808594 261.488281 229.667969 261.515625 C 230.140625 261.507812 230.613281 261.503906 231.101562 261.5 C 232.652344 261.488281 234.203125 261.488281 235.753906 261.488281 C 236.84375 261.488281 237.933594 261.484375 239.023438 261.480469 C 241.304688 261.472656 243.585938 261.472656 245.863281 261.472656 C 248.765625 261.476562 251.667969 261.460938 254.570312 261.441406 C 256.820312 261.429688 259.070312 261.429688 261.320312 261.429688 C 262.390625 261.429688 263.460938 261.425781 264.527344 261.414062 C 279.320312 261.308594 288.351562 266.925781 298.671875 277.089844 C 300.671875 279.078125 302.65625 281.078125 304.640625 283.078125 C 305.507812 283.945312 306.375 284.816406 307.242188 285.6875 C 309.503906 287.953125 311.761719 290.226562 314.019531 292.496094 C 317.644531 296.140625 321.273438 299.785156 324.902344 303.425781 C 326.160156 304.691406 327.417969 305.957031 328.675781 307.222656 C 329.453125 308 330.226562 308.78125 331.003906 309.558594 C 331.347656 309.90625 331.691406 310.253906 332.046875 310.613281 C 333.679688 312.25 335.335938 313.863281 337.039062 315.429688 C 337.496094 315.851562 337.496094 315.851562 337.960938 316.285156 C 338.957031 317.078125 338.957031 317.078125 340.820312 316.894531 C 341.910156 315.9375 342.886719 314.988281 343.871094 313.933594 C 345.519531 312.207031 347.160156 310.527344 348.976562 308.976562 C 351.097656 307.132812 353.085938 305.179688 355.066406 303.1875 C 355.441406 302.808594 355.820312 302.429688 356.210938 302.039062 C 357.023438 301.222656 357.835938 300.410156 358.648438 299.59375 C 359.933594 298.300781 361.21875 297.011719 362.507812 295.71875 C 365.238281 292.984375 367.96875 290.246094 370.695312 287.507812 C 373.867188 284.324219 377.035156 281.148438 380.207031 277.96875 C 381.472656 276.699219 382.738281 275.425781 384.003906 274.15625 C 384.78125 273.378906 385.558594 272.597656 386.335938 271.820312 C 386.6875 271.46875 387.035156 271.113281 387.398438 270.75 C 389.054688 269.09375 390.714844 267.546875 392.578125 266.113281 C 393.09375 265.558594 393.59375 264.988281 394.074219 264.40625 C 395.582031 262.632812 397.203125 260.996094 398.863281 259.367188 C 401.539062 256.726562 403.953125 253.957031 406.25 250.976562 C 406.453125 250.71875 406.65625 250.460938 406.863281 250.195312 C 422.035156 230.828125 429.15625 206.097656 426.425781 181.621094 C 425.554688 175.085938 424.058594 168.8125 421.875 162.597656 C 421.765625 162.28125 421.65625 161.964844 421.542969 161.636719 C 416.621094 147.617188 407.511719 133.949219 395.996094 124.511719 C 395.742188 124.300781 395.488281 124.085938 395.230469 123.867188 C 369.0625 101.878906 332.226562 97.328125 301.269531 111.816406 Z M 301.269531 111.816406 "/>
    <path style=" stroke:none;fill-rule:nonzero;fill:rgb(29.019609%,73.725492%,71.764708%);fill-opacity:1;" d="M 232.6875 285.441406 C 233.09375 285.433594 233.503906 285.429688 233.921875 285.425781 C 235.269531 285.414062 236.613281 285.414062 237.957031 285.414062 C 238.894531 285.414062 239.835938 285.410156 240.773438 285.40625 C 242.738281 285.398438 244.707031 285.398438 246.671875 285.398438 C 249.183594 285.402344 251.699219 285.386719 254.210938 285.367188 C 256.148438 285.355469 258.089844 285.355469 260.027344 285.355469 C 260.953125 285.355469 261.878906 285.351562 262.804688 285.339844 C 264.105469 285.332031 265.402344 285.335938 266.699219 285.34375 C 267.265625 285.335938 267.265625 285.335938 267.847656 285.324219 C 272.777344 285.398438 275.75 288.722656 279.027344 292.058594 C 279.613281 292.648438 279.613281 292.648438 280.214844 293.25 C 281.5 294.542969 282.785156 295.84375 284.066406 297.140625 C 284.96875 298.046875 285.867188 298.953125 286.769531 299.859375 C 289.382812 302.480469 291.988281 305.113281 294.59375 307.742188 C 298.132812 311.308594 301.671875 314.875 305.21875 318.4375 C 306.53125 319.757812 307.84375 321.085938 309.15625 322.414062 C 314.503906 327.820312 314.503906 327.820312 320.347656 332.671875 C 321.332031 333.535156 321.777344 334.246094 322.265625 335.449219 C 312.34375 345.371094 302.417969 355.296875 292.496094 365.21875 C 292.246094 365.46875 291.992188 365.722656 291.734375 365.980469 C 291.050781 366.664062 290.359375 367.351562 289.671875 368.035156 C 288.429688 369.285156 287.253906 370.582031 286.070312 371.886719 C 283.4375 374.765625 280.710938 377.546875 277.953125 380.308594 C 277.566406 380.699219 277.179688 381.085938 276.78125 381.488281 C 274.445312 383.820312 272.046875 386.042969 269.53125 388.183594 C 269.109375 388.546875 268.6875 388.910156 268.253906 389.285156 C 260.976562 395.304688 253.816406 396.160156 244.628906 395.507812 C 237.871094 394.601562 232.816406 390.25 228.027344 385.742188 C 227.53125 385.296875 227.035156 384.847656 226.539062 384.40625 C 226.027344 383.945312 225.515625 383.484375 225.007812 383.027344 C 224.546875 382.613281 224.085938 382.199219 223.613281 381.773438 C 222.539062 380.769531 221.582031 379.710938 220.628906 378.59375 C 218.707031 376.386719 216.667969 374.320312 214.597656 372.257812 C 214.195312 371.855469 213.796875 371.453125 213.382812 371.042969 C 212.070312 369.730469 210.757812 368.421875 209.445312 367.109375 C 208.527344 366.199219 207.613281 365.285156 206.699219 364.371094 C 204.546875 362.21875 202.390625 360.066406 200.234375 357.914062 C 197.78125 355.464844 195.324219 353.011719 192.871094 350.5625 C 187.828125 345.523438 182.78125 340.484375 177.734375 335.449219 C 178.585938 333.609375 179.574219 332.621094 181.113281 331.277344 C 185.136719 327.6875 188.898438 323.835938 192.695312 320.007812 C 194.039062 318.652344 195.378906 317.304688 196.722656 315.953125 C 200.539062 312.121094 204.355469 308.289062 208.164062 304.449219 C 210.503906 302.089844 212.847656 299.734375 215.191406 297.382812 C 216.082031 296.488281 216.972656 295.59375 217.859375 294.695312 C 219.097656 293.445312 220.339844 292.199219 221.582031 290.957031 C 221.945312 290.585938 222.308594 290.214844 222.683594 289.835938 C 225.828125 286.699219 228.160156 285.421875 232.6875 285.441406 Z M 232.6875 285.441406 "/>
    <path style=" stroke:none;fill-rule:nonzero;fill:rgb(11.764706%,21.176471%,36.862746%);fill-opacity:1;" d="M 155.554688 149.804688 C 155.96875 149.800781 156.378906 149.796875 156.804688 149.792969 C 157.679688 149.789062 158.550781 149.785156 159.425781 149.785156 C 160.753906 149.78125 162.082031 149.765625 163.410156 149.75 C 164.261719 149.746094 165.113281 149.742188 165.960938 149.742188 C 166.554688 149.734375 166.554688 149.734375 167.15625 149.722656 C 170.015625 149.734375 172.453125 150.15625 174.679688 152.117188 C 176.320312 154.332031 176.820312 155.332031 176.8125 158.074219 C 176.8125 158.660156 176.8125 159.246094 176.8125 159.851562 C 176.8125 160.488281 176.808594 161.121094 176.804688 161.777344 C 176.804688 162.433594 176.804688 163.089844 176.804688 163.742188 C 176.800781 165.46875 176.796875 167.195312 176.792969 168.921875 C 176.785156 170.683594 176.785156 172.441406 176.78125 174.203125 C 176.777344 177.660156 176.769531 181.113281 176.757812 184.570312 C 177.117188 184.566406 177.476562 184.558594 177.847656 184.554688 C 181.246094 184.503906 184.640625 184.46875 188.039062 184.445312 C 189.785156 184.429688 191.535156 184.414062 193.28125 184.386719 C 194.96875 184.359375 196.65625 184.34375 198.34375 184.339844 C 199.296875 184.332031 200.246094 184.3125 201.199219 184.292969 C 206.605469 184.292969 206.605469 184.292969 208.851562 186.300781 C 211.121094 188.898438 211.160156 191.414062 211.148438 194.699219 C 211.152344 195.152344 211.15625 195.609375 211.15625 196.074219 C 211.160156 197.03125 211.160156 197.988281 211.15625 198.945312 C 211.152344 200.402344 211.164062 201.859375 211.179688 203.316406 C 211.179688 204.25 211.179688 205.179688 211.179688 206.113281 C 211.183594 206.546875 211.191406 206.980469 211.195312 207.425781 C 211.164062 210.304688 210.664062 211.996094 208.984375 214.355469 C 206.59375 216.210938 204.859375 216.859375 201.867188 216.851562 C 201.3125 216.851562 200.753906 216.851562 200.179688 216.851562 C 199.277344 216.847656 199.277344 216.847656 198.359375 216.84375 C 197.433594 216.84375 197.433594 216.84375 196.492188 216.84375 C 194.859375 216.839844 193.222656 216.835938 191.585938 216.832031 C 189.917969 216.824219 188.25 216.824219 186.578125 216.820312 C 183.304688 216.816406 180.03125 216.808594 176.757812 216.796875 C 176.761719 217.164062 176.765625 217.527344 176.769531 217.90625 C 176.808594 221.359375 176.839844 224.816406 176.859375 228.269531 C 176.871094 230.046875 176.882812 231.824219 176.90625 233.597656 C 176.925781 235.316406 176.9375 237.03125 176.941406 238.746094 C 176.949219 239.714844 176.964844 240.683594 176.980469 241.652344 C 176.980469 247.410156 176.980469 247.410156 174.804688 250 C 172.117188 252.058594 169.898438 252.25 166.582031 252.230469 C 166.128906 252.234375 165.675781 252.234375 165.207031 252.238281 C 164.253906 252.242188 163.300781 252.242188 162.347656 252.234375 C 160.894531 252.226562 159.441406 252.246094 157.988281 252.261719 C 157.058594 252.261719 156.128906 252.261719 155.195312 252.261719 C 154.765625 252.265625 154.335938 252.273438 153.890625 252.28125 C 150.816406 252.234375 149.296875 251.539062 146.972656 249.511719 C 145.25 247.15625 144.957031 245.164062 144.964844 242.296875 C 144.964844 241.445312 144.964844 241.445312 144.964844 240.578125 C 144.964844 239.96875 144.96875 239.359375 144.972656 238.730469 C 144.972656 238.105469 144.972656 237.480469 144.972656 236.835938 C 144.976562 235.175781 144.980469 233.515625 144.984375 231.855469 C 144.992188 230.160156 144.992188 228.464844 144.996094 226.769531 C 145 223.445312 145.007812 220.121094 145.019531 216.796875 C 144.6875 216.800781 144.351562 216.804688 144.007812 216.808594 C 140.523438 216.851562 137.039062 216.882812 133.550781 216.902344 C 132.25 216.914062 130.953125 216.925781 129.652344 216.945312 C 127.78125 216.96875 125.910156 216.980469 124.039062 216.988281 C 123.460938 216.996094 122.882812 217.007812 122.289062 217.019531 C 118.878906 217.019531 116.660156 216.6875 113.769531 214.84375 C 111.058594 212.058594 110.6875 209.414062 110.675781 205.695312 C 110.671875 205.078125 110.671875 205.078125 110.664062 204.453125 C 110.660156 203.585938 110.660156 202.722656 110.660156 201.855469 C 110.65625 200.539062 110.640625 199.226562 110.621094 197.910156 C 110.617188 197.066406 110.617188 196.222656 110.613281 195.378906 C 110.609375 194.992188 110.601562 194.601562 110.59375 194.203125 C 110.617188 191.429688 111.25 189.332031 112.792969 187.011719 C 115.046875 184.867188 116.855469 183.957031 119.964844 183.972656 C 120.519531 183.972656 121.078125 183.972656 121.652344 183.972656 C 122.550781 183.980469 122.550781 183.980469 123.464844 183.988281 C 124.082031 183.988281 124.695312 183.988281 125.332031 183.992188 C 126.960938 183.996094 128.59375 184.003906 130.222656 184.015625 C 131.890625 184.023438 133.554688 184.03125 135.222656 184.035156 C 138.488281 184.046875 141.753906 184.0625 145.019531 184.082031 C 145.015625 183.742188 145.011719 183.402344 145.007812 183.050781 C 144.96875 179.832031 144.9375 176.617188 144.917969 173.398438 C 144.90625 171.742188 144.894531 170.089844 144.871094 168.4375 C 144.847656 166.53125 144.835938 164.625 144.828125 162.71875 C 144.820312 162.132812 144.808594 161.542969 144.796875 160.9375 C 144.796875 157.507812 145.085938 155.238281 146.972656 152.34375 C 149.796875 150.097656 152.050781 149.820312 155.554688 149.804688 Z M 155.554688 149.804688 "/>
    <path style=" stroke:none;fill-rule:nonzero;fill:rgb(11.372549%,20.784314%,36.470589%);fill-opacity:1;" d="M 335.398438 139.53125 C 335.78125 139.527344 336.164062 139.523438 336.558594 139.519531 C 337.371094 139.511719 338.179688 139.507812 338.992188 139.503906 C 340.230469 139.496094 341.46875 139.472656 342.707031 139.453125 C 343.496094 139.449219 344.28125 139.445312 345.070312 139.441406 C 345.441406 139.433594 345.808594 139.421875 346.191406 139.414062 C 348.003906 139.421875 349.023438 139.585938 350.5625 140.578125 C 352.003906 142.054688 352.113281 142.832031 352.105469 144.839844 C 352.105469 145.542969 352.105469 145.542969 352.105469 146.261719 C 352.105469 146.769531 352.101562 147.277344 352.097656 147.800781 C 352.097656 148.320312 352.097656 148.839844 352.097656 149.371094 C 352.09375 151.035156 352.085938 152.695312 352.082031 154.359375 C 352.078125 155.484375 352.078125 156.605469 352.074219 157.730469 C 352.070312 160.492188 352.0625 163.253906 352.050781 166.015625 C 352.464844 166.007812 352.464844 166.007812 352.882812 166.003906 C 355.75 165.960938 358.617188 165.929688 361.484375 165.910156 C 362.554688 165.898438 363.625 165.886719 364.695312 165.867188 C 366.234375 165.84375 367.773438 165.832031 369.3125 165.824219 C 369.789062 165.816406 370.265625 165.804688 370.753906 165.792969 C 373.546875 165.792969 375.277344 166.011719 377.441406 167.96875 C 379.203125 170.3125 378.597656 173.773438 378.597656 176.585938 C 378.601562 177.667969 378.617188 178.75 378.636719 179.832031 C 378.640625 180.523438 378.640625 181.21875 378.644531 181.910156 C 378.648438 182.539062 378.652344 183.164062 378.65625 183.8125 C 378.375 185.863281 377.785156 186.894531 376.464844 188.476562 C 375.015625 189.382812 373.925781 189.574219 372.226562 189.5625 C 371.777344 189.5625 371.328125 189.5625 370.867188 189.5625 C 370.382812 189.558594 369.902344 189.554688 369.40625 189.546875 C 368.664062 189.546875 368.664062 189.546875 367.90625 189.542969 C 366.324219 189.539062 364.742188 189.527344 363.160156 189.515625 C 362.085938 189.507812 361.011719 189.503906 359.941406 189.5 C 357.308594 189.488281 354.679688 189.472656 352.050781 189.453125 C 352.058594 189.859375 352.058594 189.859375 352.0625 190.269531 C 352.105469 193.082031 352.136719 195.894531 352.15625 198.707031 C 352.167969 199.753906 352.179688 200.804688 352.199219 201.855469 C 352.222656 203.363281 352.234375 204.871094 352.242188 206.378906 C 352.25 206.847656 352.261719 207.316406 352.273438 207.800781 C 352.273438 209.917969 352.253906 211.09375 351.125 212.929688 C 348.675781 215.164062 345.058594 214.503906 341.90625 214.527344 C 341.105469 214.535156 340.300781 214.546875 339.5 214.566406 C 338.339844 214.59375 337.179688 214.605469 336.019531 214.609375 C 335.664062 214.621094 335.308594 214.632812 334.945312 214.644531 C 333.046875 214.636719 331.816406 214.375 330.347656 213.210938 C 328.785156 211.585938 328.550781 210.519531 328.558594 208.355469 C 328.558594 207.933594 328.558594 207.515625 328.558594 207.082031 C 328.558594 206.628906 328.5625 206.179688 328.566406 205.714844 C 328.566406 205.25 328.566406 204.785156 328.566406 204.308594 C 328.570312 202.824219 328.578125 201.34375 328.582031 199.859375 C 328.585938 198.855469 328.585938 197.851562 328.589844 196.84375 C 328.59375 194.382812 328.601562 191.917969 328.613281 189.453125 C 328.339844 189.457031 328.0625 189.464844 327.78125 189.46875 C 324.914062 189.523438 322.046875 189.558594 319.179688 189.585938 C 318.109375 189.597656 317.039062 189.617188 315.96875 189.636719 C 314.429688 189.667969 312.890625 189.679688 311.351562 189.691406 C 310.875 189.703125 310.398438 189.714844 309.910156 189.730469 C 307.699219 189.730469 306.152344 189.703125 304.394531 188.277344 C 301.996094 185.683594 302.589844 182.386719 302.5625 179.03125 C 302.554688 178.25 302.542969 177.472656 302.523438 176.695312 C 302.496094 175.566406 302.484375 174.441406 302.480469 173.316406 C 302.46875 172.972656 302.457031 172.628906 302.445312 172.273438 C 302.453125 170.378906 302.738281 169.203125 303.910156 167.757812 C 305.511719 166.167969 306.148438 165.953125 308.324219 165.960938 C 309 165.960938 309 165.960938 309.6875 165.960938 C 310.417969 165.964844 310.417969 165.964844 311.160156 165.96875 C 311.90625 165.96875 311.90625 165.96875 312.667969 165.96875 C 314.257812 165.972656 315.851562 165.980469 317.445312 165.984375 C 318.523438 165.988281 319.597656 165.988281 320.675781 165.992188 C 323.324219 165.996094 325.96875 166.003906 328.613281 166.015625 C 328.609375 165.742188 328.605469 165.46875 328.601562 165.1875 C 328.558594 162.328125 328.527344 159.46875 328.507812 156.605469 C 328.496094 155.539062 328.484375 154.476562 328.464844 153.410156 C 328.441406 151.875 328.429688 150.335938 328.421875 148.800781 C 328.414062 148.328125 328.402344 147.855469 328.390625 147.367188 C 328.390625 144.367188 328.789062 142.582031 330.566406 140.136719 C 332.09375 139.375 333.722656 139.546875 335.398438 139.53125 Z M 335.398438 139.53125 "/>
    <path style=" stroke:none;fill-rule:nonzero;fill:rgb(11.372549%,20.784314%,36.470589%);fill-opacity:1;" d="M 324.21875 228.515625 C 329.285156 231.683594 332.585938 236.042969 334.472656 241.699219 C 335.074219 248.207031 334.65625 254.164062 330.382812 259.386719 C 326.601562 263.523438 321.746094 266.234375 316.117188 266.707031 C 310.132812 266.910156 304.578125 264.699219 300.144531 260.667969 C 296.121094 256.285156 294.0625 251.007812 294.265625 245.0625 C 294.957031 239.246094 297.359375 234.34375 301.847656 230.558594 C 308.53125 225.820312 316.761719 224.773438 324.21875 228.515625 Z M 324.21875 228.515625 "/>
    <path style=" stroke:none;fill-rule:nonzero;fill:rgb(16.470589%,24.705882%,37.254903%);fill-opacity:1;" d="M 310.644531 188.367188 C 311.257812 188.367188 311.257812 188.367188 311.886719 188.367188 C 312.546875 188.375 312.546875 188.375 313.222656 188.382812 C 313.902344 188.382812 313.902344 188.382812 314.597656 188.386719 C 316.042969 188.390625 317.492188 188.402344 318.9375 188.414062 C 319.921875 188.421875 320.902344 188.425781 321.882812 188.429688 C 324.289062 188.441406 326.695312 188.457031 329.101562 188.476562 C 329.671875 189.617188 329.632812 190.226562 329.601562 191.492188 C 329.589844 191.910156 329.582031 192.332031 329.570312 192.765625 C 329.550781 193.445312 329.550781 193.445312 329.53125 194.140625 C 329.511719 194.839844 329.511719 194.839844 329.496094 195.550781 C 329.457031 197.035156 329.417969 198.523438 329.375 200.011719 C 329.351562 201.019531 329.324219 202.027344 329.300781 203.035156 C 329.234375 205.503906 329.167969 207.976562 329.101562 210.449219 C 328.941406 210.449219 328.78125 210.449219 328.613281 210.449219 C 328.613281 203.519531 328.613281 196.589844 328.613281 189.453125 C 321.523438 189.453125 314.433594 189.453125 307.128906 189.453125 C 308.636719 188.445312 308.941406 188.355469 310.644531 188.367188 Z M 310.644531 188.367188 "/>
    <path style=" stroke:none;fill-rule:nonzero;fill:rgb(4.705882%,10.196079%,24.705882%);fill-opacity:1;" d="M 379.882812 277.832031 C 380.203125 277.992188 380.527344 278.15625 380.859375 278.320312 C 380.589844 278.585938 380.324219 278.851562 380.046875 279.121094 C 377.519531 281.617188 375 284.117188 372.480469 286.621094 C 371.1875 287.910156 369.890625 289.195312 368.589844 290.476562 C 367.335938 291.714844 366.085938 292.957031 364.839844 294.203125 C 364.363281 294.675781 363.882812 295.148438 363.40625 295.621094 C 362.734375 296.28125 362.070312 296.945312 361.402344 297.609375 C 360.832031 298.175781 360.832031 298.175781 360.25 298.753906 C 359.363281 299.820312 359.140625 300.429688 358.886719 301.757812 C 358.054688 302.449219 358.054688 302.449219 357.023438 303.039062 C 356.691406 303.238281 356.355469 303.433594 356.007812 303.636719 C 355.023438 304.175781 354.03125 304.675781 353.027344 305.175781 C 355.648438 301.988281 358.554688 299.097656 361.476562 296.191406 C 362.007812 295.660156 362.542969 295.128906 363.074219 294.59375 C 364.464844 293.207031 365.855469 291.820312 367.25 290.433594 C 368.675781 289.011719 370.097656 287.589844 371.519531 286.171875 C 374.308594 283.390625 377.09375 280.609375 379.882812 277.832031 Z M 379.882812 277.832031 "/>
    <path style=" stroke:none;fill-rule:nonzero;fill:rgb(5.490196%,18.431373%,32.156864%);fill-opacity:1;" d="M 451.171875 187.011719 C 451.332031 187.011719 451.492188 187.011719 451.660156 187.011719 C 451.863281 194.460938 451.863281 201.722656 450.746094 209.105469 C 450.660156 209.667969 450.574219 210.230469 450.488281 210.8125 C 449.847656 214.703125 449.847656 214.703125 448.730469 215.820312 C 448.800781 215.097656 448.871094 214.375 448.945312 213.652344 C 448.988281 213.203125 449.03125 212.753906 449.078125 212.289062 C 449.160156 211.488281 449.253906 210.6875 449.359375 209.890625 C 449.832031 206.34375 449.75 202.792969 449.707031 199.21875 C 449.867188 199.21875 450.03125 199.21875 450.195312 199.21875 C 450.207031 198.917969 450.21875 198.617188 450.230469 198.308594 C 450.289062 196.945312 450.347656 195.578125 450.410156 194.214844 C 450.4375 193.503906 450.4375 193.503906 450.46875 192.78125 C 450.488281 192.324219 450.507812 191.867188 450.527344 191.398438 C 450.546875 190.980469 450.566406 190.558594 450.582031 190.128906 C 450.675781 189.039062 450.875 188.0625 451.171875 187.011719 Z M 451.171875 187.011719 "/>
    <path style=" stroke:none;fill-rule:nonzero;fill:rgb(9.803922%,14.509805%,27.843139%);fill-opacity:1;" d="M 150.878906 308.59375 C 152.417969 309.273438 153.449219 310.070312 154.625 311.269531 C 154.949219 311.59375 155.273438 311.921875 155.605469 312.257812 C 155.941406 312.601562 156.273438 312.941406 156.617188 313.292969 C 156.957031 313.636719 157.296875 313.984375 157.648438 314.339844 C 158.488281 315.1875 159.324219 316.039062 160.15625 316.894531 C 162.269531 315.121094 164.289062 313.304688 166.230469 311.339844 C 166.652344 310.914062 167.074219 310.488281 167.507812 310.046875 C 167.976562 309.570312 167.976562 309.570312 168.457031 309.082031 C 168.78125 309.242188 169.101562 309.40625 169.433594 309.570312 C 168.101562 310.972656 166.753906 312.363281 165.40625 313.75 C 165.027344 314.152344 164.644531 314.550781 164.253906 314.964844 C 163.886719 315.339844 163.519531 315.714844 163.140625 316.101562 C 162.800781 316.453125 162.464844 316.804688 162.117188 317.164062 C 161.132812 317.871094 161.132812 317.871094 160.125 317.824219 C 159.078125 317.335938 158.476562 316.835938 157.6875 316 C 157.417969 315.71875 157.148438 315.441406 156.871094 315.15625 C 156.59375 314.863281 156.320312 314.570312 156.035156 314.269531 C 154.269531 312.410156 152.699219 310.769531 150.390625 309.570312 C 150.550781 309.25 150.710938 308.925781 150.878906 308.59375 Z M 150.878906 308.59375 "/>
    <path style=" stroke:none;fill-rule:nonzero;fill:rgb(32.941177%,80.784315%,77.64706%);fill-opacity:1;" d="M 47.851562 186.035156 C 48.011719 186.035156 48.171875 186.035156 48.339844 186.035156 C 48.5 191.996094 48.664062 197.960938 48.828125 204.101562 C 48.34375 204.34375 48.34375 204.34375 47.851562 204.589844 C 47.074219 203.035156 47.363281 201.375 47.421875 199.671875 C 47.433594 199.285156 47.445312 198.894531 47.457031 198.496094 C 47.496094 197.25 47.535156 196.007812 47.578125 194.761719 C 47.601562 193.921875 47.628906 193.078125 47.652344 192.234375 C 47.71875 190.167969 47.785156 188.101562 47.851562 186.035156 Z M 47.851562 186.035156 "/>
    <path style=" stroke:none;fill-rule:nonzero;fill:rgb(92.54902%,92.156863%,90.588236%);fill-opacity:1;" d="M 425.292969 183.59375 C 425.453125 183.59375 425.617188 183.59375 425.78125 183.59375 C 425.945312 185.636719 426.109375 187.683594 426.269531 189.726562 C 426.316406 190.304688 426.363281 190.882812 426.410156 191.476562 C 426.535156 193.078125 426.652344 194.683594 426.757812 196.289062 C 426.785156 196.664062 426.8125 197.039062 426.839844 197.425781 C 426.878906 198.347656 426.878906 198.347656 426.757812 199.707031 C 426.273438 200.03125 425.789062 200.351562 425.292969 200.683594 C 425.292969 195.042969 425.292969 189.40625 425.292969 183.59375 Z M 425.292969 183.59375 "/>
    <path style=" stroke:none;fill-rule:nonzero;fill:rgb(29.411766%,73.333335%,72.156864%);fill-opacity:1;" d="M 450.195312 170.898438 C 451.164062 171.382812 451.164062 171.382812 452.148438 171.875 C 452.308594 171.875 452.46875 171.875 452.636719 171.875 C 452.636719 173.484375 452.636719 175.097656 452.636719 176.757812 C 451.992188 176.917969 451.347656 177.078125 450.683594 177.246094 C 450.523438 175.152344 450.359375 173.054688 450.195312 170.898438 Z M 450.195312 170.898438 "/>
    <path style=" stroke:none;fill-rule:nonzero;fill:rgb(7.058824%,16.862746%,32.549021%);fill-opacity:1;" d="M 78.125 115.722656 C 78.125 116.207031 78.125 116.6875 78.125 117.1875 C 77.804688 117.507812 77.480469 117.832031 77.148438 118.164062 C 77.046875 118.515625 76.945312 118.867188 76.84375 119.230469 C 75.816406 121.332031 74.0625 122.574219 72.265625 124.023438 C 72.265625 121.890625 73.578125 120.847656 74.921875 119.324219 C 75.171875 119.03125 75.425781 118.738281 75.683594 118.4375 C 77.457031 116.390625 77.457031 116.390625 78.125 115.722656 Z M 78.125 115.722656 "/>
    <path style=" stroke:none;fill-rule:nonzero;fill:rgb(89.803922%,90.980393%,92.54902%);fill-opacity:1;" d="M 76.660156 168.457031 C 77.921875 170.597656 77.546875 171.929688 77.148438 174.316406 C 76.828125 174.316406 76.503906 174.316406 76.171875 174.316406 C 76.011719 174.960938 75.851562 175.605469 75.683594 176.269531 C 75.007812 174.429688 75.394531 173.121094 75.898438 171.265625 C 76.039062 170.738281 76.179688 170.210938 76.324219 169.671875 C 76.433594 169.269531 76.546875 168.871094 76.660156 168.457031 Z M 76.660156 168.457031 "/>
    <path style=" stroke:none;fill-rule:nonzero;fill:rgb(34.117648%,77.254903%,76.862746%);fill-opacity:1;" d="M 227.050781 384.277344 C 228.015625 384.277344 228.984375 384.277344 229.980469 384.277344 C 229.980469 384.921875 229.980469 385.566406 229.980469 386.230469 C 230.941406 387.320312 230.941406 387.320312 232.179688 388.304688 C 232.585938 388.652344 232.992188 388.996094 233.414062 389.351562 C 233.730469 389.609375 234.046875 389.871094 234.375 390.136719 C 232.382812 390.136719 231.882812 389.367188 230.4375 388.03125 C 230.007812 387.640625 229.582031 387.25 229.140625 386.847656 C 228.027344 385.742188 228.027344 385.742188 227.050781 384.277344 Z M 227.050781 384.277344 "/>
    <path style=" stroke:none;fill-rule:nonzero;fill:rgb(6.27451%,17.254902%,32.941177%);fill-opacity:1;" d="M 156.738281 79.101562 C 159.316406 79.101562 161.894531 79.101562 164.550781 79.101562 C 164.550781 79.421875 164.550781 79.746094 164.550781 80.078125 C 161.703125 80.496094 159.449219 80.800781 156.738281 79.589844 C 156.738281 79.429688 156.738281 79.265625 156.738281 79.101562 Z M 156.738281 79.101562 "/>
    <path style=" stroke:none;fill-rule:nonzero;fill:rgb(6.666667%,15.686275%,31.764707%);fill-opacity:1;" d="M 266.113281 106.445312 C 266.4375 106.605469 266.757812 106.765625 267.089844 106.933594 C 266.320312 107.824219 265.546875 108.707031 264.769531 109.589844 C 264.445312 109.964844 264.445312 109.964844 264.113281 110.351562 C 262.925781 111.691406 262.089844 112.625 260.253906 112.792969 C 260.953125 111.136719 261.808594 110.214844 263.183594 109.070312 C 264.199219 108.214844 265.175781 107.382812 266.113281 106.445312 Z M 266.113281 106.445312 "/>
    <path style=" stroke:none;fill-rule:nonzero;fill:rgb(6.27451%,13.725491%,29.411766%);fill-opacity:1;" d="M 358.398438 300.292969 C 358.71875 300.453125 359.042969 300.617188 359.375 300.78125 C 357.5 302.792969 355.464844 303.964844 353.027344 305.175781 C 356.109375 301.308594 356.109375 301.308594 358.398438 300.292969 Z M 358.398438 300.292969 "/>
    <path style=" stroke:none;fill-rule:nonzero;fill:rgb(6.666667%,12.156863%,25.490198%);fill-opacity:1;" d="M 73.730469 204.101562 C 74.71875 206.074219 74.882812 207.1875 75.011719 209.351562 C 75.046875 209.921875 75.085938 210.492188 75.121094 211.082031 C 75.148438 211.519531 75.171875 211.953125 75.195312 212.402344 C 75.035156 211.917969 74.875 211.4375 74.707031 210.9375 C 74.382812 210.9375 74.0625 210.9375 73.730469 210.9375 C 73.730469 208.679688 73.730469 206.425781 73.730469 204.101562 Z M 73.730469 204.101562 "/>
    <path style=" stroke:none;fill-rule:nonzero;fill:rgb(6.666667%,18.039216%,32.941177%);fill-opacity:1;" d="M 62.5 140.625 C 62.230469 142.5 61.414062 143.257812 60.058594 144.53125 C 59.558594 145.171875 59.066406 145.820312 58.59375 146.484375 C 58.890625 144.46875 59.539062 142.882812 60.546875 141.113281 C 61.523438 140.625 61.523438 140.625 62.5 140.625 Z M 62.5 140.625 "/>
    <path style=" stroke:none;fill-rule:nonzero;fill:rgb(97.254902%,97.254902%,96.862745%);fill-opacity:1;" d="M 293.945312 243.164062 C 294.105469 243.164062 294.265625 243.164062 294.433594 243.164062 C 294.59375 246.0625 294.757812 248.964844 294.921875 251.953125 C 294.4375 251.792969 293.953125 251.632812 293.457031 251.464844 C 293.617188 248.726562 293.78125 245.984375 293.945312 243.164062 Z M 293.945312 243.164062 "/>
    <path style=" stroke:none;fill-rule:nonzero;fill:rgb(8.627451%,18.039216%,34.901962%);fill-opacity:1;" d="M 303.710938 167.96875 C 304.195312 167.96875 304.679688 167.96875 305.175781 167.96875 C 305.015625 168.453125 304.851562 168.9375 304.6875 169.433594 C 304.652344 170.277344 304.644531 171.121094 304.65625 171.964844 C 304.664062 172.625 304.664062 172.625 304.671875 173.300781 C 304.675781 173.636719 304.683594 173.972656 304.6875 174.316406 C 304.203125 174.558594 304.203125 174.558594 303.710938 174.804688 C 303.519531 173.941406 303.339844 173.078125 303.160156 172.210938 C 303.058594 171.730469 302.957031 171.246094 302.851562 170.75 C 302.734375 169.433594 302.734375 169.433594 303.710938 167.96875 Z M 303.710938 167.96875 "/>
    <path style=" stroke:none;fill-rule:nonzero;fill:rgb(16.078432%,22.745098%,36.470589%);fill-opacity:1;" d="M 147.460938 305.175781 C 149.3125 305.902344 150.199219 307.011719 151.367188 308.59375 C 150.722656 308.59375 150.078125 308.59375 149.414062 308.59375 C 149.253906 308.109375 149.09375 307.625 148.925781 307.128906 C 148.601562 307.128906 148.28125 307.128906 147.949219 307.128906 C 147.789062 306.484375 147.625 305.839844 147.460938 305.175781 Z M 147.460938 305.175781 "/>
    <path style=" stroke:none;fill-rule:nonzero;fill:rgb(5.490196%,17.647059%,31.764707%);fill-opacity:1;" d="M 284.179688 93.261719 C 284.5 93.421875 284.824219 93.585938 285.15625 93.75 C 284.773438 93.953125 284.390625 94.152344 283.996094 94.359375 C 282.6875 95.234375 282.285156 95.726562 281.738281 97.167969 C 281.414062 97.007812 281.09375 96.84375 280.761719 96.679688 C 279.738281 96.875 279.738281 96.875 278.808594 97.167969 C 280.410156 95.371094 282.042969 94.328125 284.179688 93.261719 Z M 284.179688 93.261719 "/>
    <path style=" stroke:none;fill-rule:nonzero;fill:rgb(7.450981%,17.647059%,33.333334%);fill-opacity:1;" d="M 105.957031 93.75 C 105.652344 94.664062 105.652344 94.664062 104.980469 95.703125 C 103.515625 96.34375 103.515625 96.34375 102.050781 96.679688 C 101.726562 96.519531 101.40625 96.359375 101.074219 96.191406 C 101.703125 95.78125 102.335938 95.375 102.964844 94.96875 C 103.316406 94.742188 103.667969 94.515625 104.03125 94.285156 C 104.980469 93.75 104.980469 93.75 105.957031 93.75 Z M 105.957031 93.75 "/>
    <path style=" stroke:none;fill-rule:nonzero;fill:rgb(7.843138%,19.607843%,34.117648%);fill-opacity:1;" d="M 129.882812 83.984375 C 129.5625 83.984375 129.238281 83.984375 128.90625 83.984375 C 128.746094 84.46875 128.585938 84.953125 128.417969 85.449219 C 127.128906 85.449219 125.839844 85.449219 124.511719 85.449219 C 125 84.472656 125 84.472656 126.375 83.894531 C 127.859375 83.511719 128.484375 83.445312 129.882812 83.984375 Z M 129.882812 83.984375 "/>
    <path style=" stroke:none;fill-rule:nonzero;fill:rgb(34.901962%,78.039217%,77.254903%);fill-opacity:1;" d="M 282.714844 407.714844 C 283.039062 407.875 283.359375 408.039062 283.691406 408.203125 C 283.308594 408.496094 282.925781 408.789062 282.53125 409.089844 C 281.179688 410.113281 281.179688 410.113281 280.273438 411.621094 C 279.628906 411.460938 278.984375 411.296875 278.320312 411.132812 C 279.769531 410.003906 281.21875 408.875 282.714844 407.714844 Z M 282.714844 407.714844 "/>
    <path style=" stroke:none;fill-rule:nonzero;fill:rgb(90.588236%,90.588236%,90.980393%);fill-opacity:1;" d="M 322.753906 264.648438 C 323.238281 264.96875 323.71875 265.292969 324.21875 265.625 C 321.148438 266.8125 321.148438 266.8125 319.335938 266.113281 C 320.476562 265.523438 321.53125 265.054688 322.753906 264.648438 Z M 322.753906 264.648438 "/>
    <path style=" stroke:none;fill-rule:nonzero;fill:rgb(17.254902%,23.529412%,36.862746%);fill-opacity:1;" d="M 102.539062 260.742188 C 104.183594 261.421875 104.972656 262.195312 105.957031 263.671875 C 105.472656 263.832031 104.992188 263.992188 104.492188 264.160156 C 102.539062 261.839844 102.539062 261.839844 102.539062 260.742188 Z M 102.539062 260.742188 "/>
    <path style=" stroke:none;fill-rule:nonzero;fill:rgb(87.058824%,87.450981%,88.235295%);fill-opacity:1;" d="M 145.507812 105.46875 C 145.667969 105.789062 145.828125 106.113281 145.996094 106.445312 C 143.820312 106.6875 143.820312 106.6875 141.601562 106.933594 C 141.601562 106.449219 141.601562 105.96875 141.601562 105.46875 C 143.078125 104.996094 144.046875 104.914062 145.507812 105.46875 Z M 145.507812 105.46875 "/>
    <path style=" stroke:none;fill-rule:nonzero;fill:rgb(7.450981%,13.725491%,28.235295%);fill-opacity:1;" d="M 420.410156 226.074219 C 420.894531 226.234375 421.375 226.398438 421.875 226.5625 C 421.171875 228.207031 420.246094 229.253906 418.945312 230.46875 C 419.21875 228.835938 419.605469 227.523438 420.410156 226.074219 Z M 420.410156 226.074219 "/>
    <path style=" stroke:none;fill-rule:nonzero;fill:rgb(92.156863%,92.156863%,91.37255%);fill-opacity:1;" d="M 99.609375 129.882812 C 99.609375 131.347656 99.609375 131.347656 98.96875 132.023438 C 98.207031 132.613281 97.441406 133.199219 96.679688 133.789062 C 96.359375 133.46875 96.035156 133.144531 95.703125 132.8125 C 96.992188 131.84375 98.28125 130.878906 99.609375 129.882812 Z M 99.609375 129.882812 "/>
    <path style=" stroke:none;fill-rule:nonzero;fill:rgb(7.843138%,13.725491%,27.058825%);fill-opacity:1;" d="M 380.859375 113.769531 C 381.582031 113.976562 382.304688 114.191406 383.027344 114.410156 C 383.628906 114.589844 383.628906 114.589844 384.246094 114.769531 C 384.578125 114.925781 384.910156 115.078125 385.253906 115.234375 C 385.414062 115.71875 385.578125 116.203125 385.742188 116.699219 C 383.988281 116.046875 382.425781 115.285156 380.859375 114.257812 C 380.859375 114.097656 380.859375 113.9375 380.859375 113.769531 Z M 380.859375 113.769531 "/>
    <path style=" stroke:none;fill-rule:nonzero;fill:rgb(5.882353%,16.078432%,31.764707%);fill-opacity:1;" d="M 93.75 101.074219 C 94.070312 101.234375 94.394531 101.398438 94.726562 101.5625 C 93.105469 103.90625 93.105469 103.90625 91.429688 104.402344 C 91.066406 104.429688 90.707031 104.460938 90.332031 104.492188 C 91.472656 103.351562 92.609375 102.214844 93.75 101.074219 Z M 93.75 101.074219 "/>
    <path style=" stroke:none;fill-rule:nonzero;fill:rgb(34.901962%,79.607844%,78.431374%);fill-opacity:1;" d="M 421.875 270.507812 C 422.035156 270.992188 422.195312 271.476562 422.363281 271.972656 C 421.074219 272.9375 419.785156 273.90625 418.457031 274.902344 C 419.410156 272.996094 420.347656 271.953125 421.875 270.507812 Z M 421.875 270.507812 "/>
    <path style=" stroke:none;fill-rule:nonzero;fill:rgb(6.666667%,14.117648%,29.411766%);fill-opacity:1;" d="M 290.039062 116.699219 C 291.136719 116.820312 291.136719 116.820312 291.992188 117.1875 C 291.023438 117.832031 290.058594 118.476562 289.0625 119.140625 C 288.742188 118.980469 288.417969 118.820312 288.085938 118.652344 C 288.941406 117.644531 288.941406 117.644531 290.039062 116.699219 Z M 290.039062 116.699219 "/>
    <path style=" stroke:none;fill-rule:nonzero;fill:rgb(34.901962%,77.254903%,76.862746%);fill-opacity:1;" d="M 350.097656 78.125 C 350.582031 78.125 351.0625 78.125 351.5625 78.125 C 351.5625 78.445312 351.5625 78.769531 351.5625 79.101562 C 352.367188 79.101562 353.171875 79.101562 354.003906 79.101562 C 354.003906 79.261719 354.003906 79.421875 354.003906 79.589844 C 352.230469 79.589844 350.460938 79.589844 348.632812 79.589844 C 349.117188 79.105469 349.601562 78.625 350.097656 78.125 Z M 350.097656 78.125 "/>
    <path style=" stroke:none;fill-rule:nonzero;fill:rgb(34.901962%,80.000001%,78.823531%);fill-opacity:1;" d="M 450.195312 170.898438 C 450.921875 171.382812 450.921875 171.382812 451.660156 171.875 C 451.5 173.324219 451.335938 174.773438 451.171875 176.269531 C 451.011719 176.269531 450.851562 176.269531 450.683594 176.269531 C 450.523438 174.496094 450.359375 172.726562 450.195312 170.898438 Z M 450.195312 170.898438 "/>
    <path style=" stroke:none;fill-rule:nonzero;fill:rgb(6.27451%,12.54902%,25.882354%);fill-opacity:1;" d="M 108.886719 121.09375 C 107.4375 122.300781 107.4375 122.300781 105.957031 123.535156 C 105.632812 123.375 105.3125 123.210938 104.980469 123.046875 C 105.140625 122.402344 105.304688 121.757812 105.46875 121.09375 C 107.789062 120.542969 107.789062 120.542969 108.886719 121.09375 Z M 108.886719 121.09375 "/>
    <path style=" stroke:none;fill-rule:nonzero;fill:rgb(90.196079%,91.37255%,92.156863%);fill-opacity:1;" d="M 196.777344 111.328125 C 199.097656 111.695312 199.097656 111.695312 200.195312 112.792969 C 199.390625 112.953125 198.585938 113.117188 197.753906 113.28125 C 197.429688 112.636719 197.109375 111.992188 196.777344 111.328125 Z M 196.777344 111.328125 "/>
  </g>
</svg>